<svg id="Слой_1" data-name="Слой 1" xmlns="http://www.w3.org/2000/svg" xmlns:xlink="http://www.w3.org/1999/xlink" viewBox="0 0 1213.69 859.61"><defs><style>.cls-1,.cls-10,.cls-11,.cls-13,.cls-14,.cls-15,.cls-17,.cls-18,.cls-19,.cls-2,.cls-21,.cls-22,.cls-23,.cls-25,.cls-26,.cls-27,.cls-3,.cls-5,.cls-6,.cls-7,.cls-9{opacity:0.15;isolation:isolate;}.cls-1{fill:url(#Безымянный_градиент);}.cls-2{fill:url(#Безымянный_градиент_2);}.cls-3{fill:url(#Безымянный_градиент_3);}.cls-4{fill:url(#Безымянный_градиент_4);}.cls-5{fill:url(#Безымянный_градиент_5);}.cls-6{fill:url(#Безымянный_градиент_6);}.cls-7{fill:url(#Безымянный_градиент_7);}.cls-8{fill:url(#Безымянный_градиент_8);}.cls-9{fill:url(#Безымянный_градиент_13);}.cls-10{fill:url(#Безымянный_градиент_14);}.cls-11{fill:url(#Безымянный_градиент_15);}.cls-12{fill:url(#Безымянный_градиент_16);}.cls-13{fill:url(#Безымянный_градиент_17);}.cls-14{fill:url(#Безымянный_градиент_18);}.cls-15{fill:url(#Безымянный_градиент_19);}.cls-16{fill:url(#Безымянный_градиент_20);}.cls-17{fill:url(#Безымянный_градиент_21);}.cls-18{fill:url(#Безымянный_градиент_22);}.cls-19{fill:url(#Безымянный_градиент_23);}.cls-20{fill:url(#Безымянный_градиент_24);}.cls-21{fill:url(#Безымянный_градиент_25);}.cls-22{fill:url(#Безымянный_градиент_26);}.cls-23{fill:url(#Безымянный_градиент_27);}.cls-24{fill:url(#Безымянный_градиент_28);}.cls-25{fill:url(#Безымянный_градиент_29);}.cls-26{fill:url(#Безымянный_градиент_30);}.cls-27{fill:url(#Безымянный_градиент_31);}.cls-28{fill:url(#Безымянный_градиент_32);}</style><linearGradient id="Безымянный_градиент" x1="359.73" y1="587.42" x2="192.05" y2="728.1" gradientTransform="matrix(0.76, -0.65, -0.65, -0.76, 473.44, 1012.16)" gradientUnits="userSpaceOnUse"><stop offset="0" stop-color="#d9e021"/><stop offset="0.7" stop-color="#649c67"/><stop offset="1" stop-color="#2f7e87"/></linearGradient><linearGradient id="Безымянный_градиент_2" x1="353.48" y1="592.61" x2="198.19" y2="722.91" xlink:href="#Безымянный_градиент"/><linearGradient id="Безымянный_градиент_3" x1="347.28" y1="597.85" x2="204.43" y2="717.71" xlink:href="#Безымянный_градиент"/><linearGradient id="Безымянный_градиент_4" x1="341.03" y1="603.04" x2="210.62" y2="712.47" xlink:href="#Безымянный_градиент"/><linearGradient id="Безымянный_градиент_5" x1="187.71" y1="-577.29" x2="19.9" y2="-436.48" gradientTransform="matrix(0.97, 0.26, 0.26, -0.97, 911.89, 126.2)" xlink:href="#Безымянный_градиент"/><linearGradient id="Безымянный_градиент_6" x1="181.48" y1="-572.09" x2="26.11" y2="-441.71" gradientTransform="matrix(0.97, 0.26, 0.26, -0.97, 911.89, 126.2)" xlink:href="#Безымянный_градиент"/><linearGradient id="Безымянный_градиент_7" x1="175.2" y1="-566.79" x2="32.3" y2="-446.88" gradientTransform="matrix(0.97, 0.26, 0.26, -0.97, 911.89, 126.2)" xlink:href="#Безымянный_градиент"/><linearGradient id="Безымянный_градиент_8" x1="169.06" y1="-561.63" x2="38.57" y2="-452.13" gradientTransform="matrix(0.97, 0.26, 0.26, -0.97, 911.89, 126.2)" xlink:href="#Безымянный_градиент"/><linearGradient id="Безымянный_градиент_13" x1="258.02" y1="578.08" x2="227.1" y2="663.03" gradientTransform="matrix(0.88, 0.47, 0.47, -0.88, -186.79, 541.19)" gradientUnits="userSpaceOnUse"><stop offset="0" stop-color="#bf0055"/><stop offset="1" stop-color="#fbae17"/></linearGradient><linearGradient id="Безымянный_градиент_14" x1="256.36" y1="582.79" x2="228.86" y2="658.34" xlink:href="#Безымянный_градиент_13"/><linearGradient id="Безымянный_градиент_15" x1="254.66" y1="587.42" x2="230.55" y2="653.67" xlink:href="#Безымянный_градиент_13"/><linearGradient id="Безымянный_градиент_16" x1="252.89" y1="592.08" x2="232.21" y2="648.91" xlink:href="#Безымянный_градиент_13"/><linearGradient id="Безымянный_градиент_17" x1="770.85" y1="267.74" x2="739.96" y2="352.61" gradientTransform="matrix(0.48, -0.88, -0.88, -0.48, 66.06, 1465.51)" xlink:href="#Безымянный_градиент_13"/><linearGradient id="Безымянный_градиент_18" x1="769.16" y1="272.39" x2="741.64" y2="348.02" gradientTransform="matrix(0.48, -0.88, -0.88, -0.48, 66.06, 1465.51)" xlink:href="#Безымянный_градиент_13"/><linearGradient id="Безымянный_градиент_19" x1="767.46" y1="277.07" x2="743.35" y2="343.31" gradientTransform="matrix(0.48, -0.88, -0.88, -0.48, 66.06, 1465.51)" xlink:href="#Безымянный_градиент_13"/><linearGradient id="Безымянный_градиент_20" x1="765.72" y1="281.74" x2="745.02" y2="338.59" gradientTransform="matrix(0.48, -0.88, -0.88, -0.48, 66.06, 1465.51)" xlink:href="#Безымянный_градиент_13"/><linearGradient id="Безымянный_градиент_21" x1="979.31" y1="1053.82" x2="953.44" y2="1124.89" gradientTransform="matrix(0.96, -0.28, -0.28, -0.96, 141.74, 1657.17)" xlink:href="#Безымянный_градиент_13"/><linearGradient id="Безымянный_градиент_22" x1="977.9" y1="1057.73" x2="954.89" y2="1120.97" gradientTransform="matrix(0.96, -0.28, -0.28, -0.96, 141.74, 1657.17)" xlink:href="#Безымянный_градиент_13"/><linearGradient id="Безымянный_градиент_23" x1="976.48" y1="1061.63" x2="956.3" y2="1117.08" gradientTransform="matrix(0.96, -0.28, -0.28, -0.96, 141.74, 1657.17)" xlink:href="#Безымянный_градиент_13"/><linearGradient id="Безымянный_градиент_24" x1="975.02" y1="1065.55" x2="957.72" y2="1113.09" gradientTransform="matrix(0.96, -0.28, -0.28, -0.96, 141.74, 1657.17)" xlink:href="#Безымянный_градиент_13"/><linearGradient id="Безымянный_градиент_25" x1="394.78" y1="29.56" x2="311.13" y2="41.89" gradientTransform="matrix(0.89, 0.45, 0.45, -0.89, 197.54, 351.7)" xlink:href="#Безымянный_градиент_13"/><linearGradient id="Безымянный_градиент_26" x1="391.13" y1="30.08" x2="314.87" y2="41.32" gradientTransform="matrix(0.89, 0.45, 0.45, -0.89, 197.54, 351.7)" xlink:href="#Безымянный_градиент_13"/><linearGradient id="Безымянный_градиент_27" x1="387.42" y1="30.64" x2="318.51" y2="40.8" gradientTransform="matrix(0.89, 0.45, 0.45, -0.89, 197.54, 351.7)" xlink:href="#Безымянный_градиент_13"/><linearGradient id="Безымянный_градиент_28" x1="383.73" y1="31.14" x2="322.19" y2="40.2" gradientTransform="matrix(0.89, 0.45, 0.45, -0.89, 197.54, 351.7)" xlink:href="#Безымянный_градиент_13"/><linearGradient id="Безымянный_градиент_29" x1="1378.46" y1="654.92" x2="1294.84" y2="667.25" gradientTransform="matrix(0.95, -0.31, -0.31, -0.95, -11.54, 1260.23)" xlink:href="#Безымянный_градиент_13"/><linearGradient id="Безымянный_градиент_30" x1="1374.73" y1="655.53" x2="1298.5" y2="666.76" gradientTransform="matrix(0.95, -0.31, -0.31, -0.95, -11.54, 1260.23)" xlink:href="#Безымянный_градиент_13"/><linearGradient id="Безымянный_градиент_31" x1="1371.09" y1="656" x2="1302.15" y2="666.17" gradientTransform="matrix(0.95, -0.31, -0.31, -0.95, -11.54, 1260.23)" xlink:href="#Безымянный_градиент_13"/><linearGradient id="Безымянный_градиент_32" x1="1367.42" y1="656.59" x2="1305.87" y2="665.66" gradientTransform="matrix(0.95, -0.31, -0.31, -0.95, -11.54, 1260.23)" xlink:href="#Безымянный_градиент_13"/></defs><title>background3</title><g id="Ладья"><path id="Обводка_3" data-name="Обводка 3" class="cls-1" d="M328.21,419.06l-1,.84c-9.89,8.42-23.88,19.23-34.42,23-16.51,6-24.29,5-39.62-5.17-13-8.58-19.36-19.2-19.32-32.35a46.77,46.77,0,0,1-6.42-10.6c-3.69-7.49-7.67-15.25-10.8-21-7.85-1-15.43-5.28-22.59-12.93-.88-.95-1.74-2-2.56-3a24.48,24.48,0,0,1-15-7.19c-.33-.34-8.27-8.43-15.7-15.3-3.17-2.92-9.74-9-13.35-17.45-5.19-12.2-2.61-25.27,7.08-35.85a36.82,36.82,0,0,1,10.28-7.86,26.82,26.82,0,0,1,4.69-5.66l.46-.41,17.35-15,17.47-14.67.39-.32a27.34,27.34,0,0,1,6.32-3.72,36.84,36.84,0,0,1,5.71-6.13,38.45,38.45,0,0,1,3.71-2.77c12-7.87,25.29-8.32,36.51-1.24,7.77,4.9,12.72,12.37,15.1,16,5.54,8.36,12.31,17.56,12.59,18a24.51,24.51,0,0,1,4.7,16c.93,1,1.79,2,2.59,3,6.4,8.29,9.46,16.45,9.15,24.36,5.22,4,12.25,9.19,19.06,14a46.88,46.88,0,0,1,9.43,8c13,2.07,22.45,10,28.85,24.25,7.53,16.75,7.29,24.59-1.23,39.94-5.45,9.8-18.32,21.84-28.16,30.21Z"/><path id="Обводка_2" data-name="Обводка 2" class="cls-2" d="M323,412.89l-1,.85c-7.66,6.52-22,18-31.89,21.57-14.07,5.08-19.21,4.4-32.41-4.31-11.72-7.73-16.59-16.6-15.54-28.52a36.6,36.6,0,0,1-7.3-11.08c-4.8-9.75-10-19.74-13.29-25.6-7.25.56-14.47-2.95-21.54-10.5a33.72,33.72,0,0,1-4.11-5.47h-2.14A16.37,16.37,0,0,1,182.27,345c-.08-.09-8.34-8.51-16-15.58-3-2.73-8.47-7.82-11.39-14.68-4-9.28-2-18.94,5.6-27.2a28.28,28.28,0,0,1,10.1-7.09,19.18,19.18,0,0,1,4.31-5.87l.3-.26,17.3-14.93L210,244.68l.26-.21a19.15,19.15,0,0,1,6.48-3.31,28.18,28.18,0,0,1,5.73-6.68,32,32,0,0,1,2.89-2.17c9.36-6.14,19.21-6.55,27.74-1.17,6.31,4,10.45,10.23,12.67,13.58,5.74,8.67,12.75,18.19,12.82,18.29a16.3,16.3,0,0,1,3,12.09l-.32,2.11a34,34,0,0,1,4.74,4.93c6.32,8.19,8.64,15.88,6.92,22.94,5.26,4.19,14.29,10.92,23.15,17.21a37.24,37.24,0,0,1,9.77,9c11.93.87,19.91,7.09,25.67,19.9,6.49,14.42,6.34,19.61-.92,32.68-5.11,9.2-18.69,21.48-26.32,28Z"/><path id="Обводка_1" data-name="Обводка 1" class="cls-3" d="M319,405.63l-1,.85-.18.14-.17.15c-3.31,2.86-20.34,17.32-30.32,20.92-11.57,4.18-14.15,3.82-25.18-3.45-11.38-7.51-12.92-14.58-11.72-22.87a16.07,16.07,0,0,0,.19-2.4c-4.52-2.85-7.31-8.37-8.42-11-5.62-11.43-12.56-24.74-15.77-29.91a23.28,23.28,0,0,1-2.3-.82l-.34-.13c-8.41,2.71-15.44-4.8-17.86-7.38a29.89,29.89,0,0,1-5.12-8l-7-.06a8.08,8.08,0,0,1-5.73-2.43c-.09-.09-8.45-8.63-16.29-15.87-5.38-5-18-16.6-5.32-30.44a20.15,20.15,0,0,1,10.47-6.1,11.8,11.8,0,0,1,3.4-6.32l.12-.11,17.25-14.83.09-.07,17.42-14.62.13-.11a11.83,11.83,0,0,1,6.77-2.34,20.16,20.16,0,0,1,7.7-9.36c15.68-10.29,25.16,4,29.2,10.11,5.9,8.9,13,18.52,13.06,18.62a8.08,8.08,0,0,1,1.49,6l-1.06,6.91a29.63,29.63,0,0,1,7.07,6.33c2.17,2.8,8.46,10.94,4.44,18.81a1.81,1.81,0,0,0,.07.35,21.73,21.73,0,0,1,.44,2.41c4.59,4,16.62,13,27,20.35,2.39,1.51,7.39,5.14,9.48,10.06a16.08,16.08,0,0,0,2.4.2c8.38.14,15.1,2.78,20.7,15.22,5.42,12,5.35,14.66-.62,25.41C338.69,388.45,323.87,401.47,319,405.63Z"/><path id="Основа" class="cls-4" d="M312.33,400.64s-18.7,16.15-27.77,19.42-9.07,3.28-18-2.59-8.89-9.88-8.16-14.94.1-8.58-3.11-10.19-5.77-7.71-5.77-7.71-17.27-35.17-19.12-34.29-5.6-2.62-8.42-1.22c-3.09,1.54-6.47-.94-10.18-4.9s-5.36-10.52-5.36-10.52l-12.6-.1s-8.49-8.68-16.58-16.15-11-12.27-4.84-19a12.92,12.92,0,0,1,10.79-4L194,305l-5.76-7.72c-5.76-7.71-2.47-10.67-2.47-10.67L203,271.75h0l17.42-14.62s3.45-2.78,10.14,4.14l6.69,6.93-8.63-12.3a12.91,12.91,0,0,1,5.64-10c7.64-5,11.91-1.37,18,7.81s13.3,19,13.3,19l-1.92,12.45s6.25,2.74,9.53,7,5.23,8,3.22,10.84c-1.84,2.56,1,6.83-.15,8.51S307,335.87,307,335.87s5.61,3.5,6.69,6.92,4.46,4.61,9.57,4.7,9.06.72,13.43,10.44,4.38,9.73-.31,18.16-23.61,24.31-23.61,24.31"/><path id="Обводка_3-2" data-name="Обводка 3-2" class="cls-5" d="M851.37,752.16l-1.24-.33c-12.54-3.37-29.38-8.75-38.49-15.28-14.28-10.21-17.85-17.19-18.22-35.56-.31-15.59,4.83-26.83,15.69-34.26a46.83,46.83,0,0,1,5.09-11.29c4.08-7.29,8.21-15,11.21-20.84-3.66-7-4.39-15.7-2.16-25.94a39.52,39.52,0,0,1,1.06-3.83,24.39,24.39,0,0,1-2.6-16.45c.09-.47,2.25-11.6,3.69-21.61.61-4.26,1.89-13.12,6.81-20.89,7.11-11.2,19.33-16.48,33.54-14.5a36.91,36.91,0,0,1,4.52.91,36.38,36.38,0,0,1,7.79,3.1,26.89,26.89,0,0,1,7.32.65l.59.15,22.17,5.8,22,6.08.48.14a26.66,26.66,0,0,1,6.65,3.09,36.18,36.18,0,0,1,8.28,1.23,39.72,39.72,0,0,1,4.39,1.48c13.28,5.41,21.2,16.12,21.73,29.37.37,9.18-3,17.49-4.58,21.48-3.75,9.31-7.49,20.1-7.65,20.56A24.47,24.47,0,0,1,949,638.34c-.28,1.33-.62,2.61-1,3.84-3.2,10-8.19,17.14-14.88,21.36-.34,6.58-.62,15.3-.75,23.65a46.45,46.45,0,0,1-1.26,12.32c5.67,11.88,4.48,24.18-3.61,37.51-9.52,15.71-16.12,20-33.59,21.64-11.16,1.07-28.37-2.7-40.85-6.06Z"/><path id="Обводка_2-2" data-name="Обводка 2-2" class="cls-6" d="M853.47,744.33l-1.26-.33c-9.72-2.61-27.3-7.91-35.86-14-12.15-8.7-14.51-13.33-14.82-29.13-.28-14,4.27-23.08,14.68-29a36.8,36.8,0,0,1,5-12.3c5.31-9.48,10.59-19.42,13.55-25.46-4.57-5.65-5.77-13.59-3.56-23.7a33.57,33.57,0,0,1,2.17-6.48l-1.2-1.77a16.33,16.33,0,0,1-2.48-12.23c0-.11,2.27-11.69,3.76-22,.57-4,1.64-11.4,5.63-17.7,5.4-8.52,14.49-12.36,25.57-10.81a27.74,27.74,0,0,1,11.54,4.3,19,19,0,0,1,7.28.22l.38.09L906,549.82l22,6.07.32.09a19.31,19.31,0,0,1,6.4,3.46,28.06,28.06,0,0,1,8.75.93,29.43,29.43,0,0,1,3.43,1.16c10.36,4.22,16.29,12.1,16.69,22.18.3,7.45-2.5,14.4-4,18.14-3.88,9.64-7.75,20.82-7.79,20.93a16.34,16.34,0,0,1-8.27,9.31l-1.93.93a33.33,33.33,0,0,1-1.36,6.7c-3.16,9.85-8.18,16.12-15,18.71-.47,6.71-.89,18-1,28.83a36.82,36.82,0,0,1-1.86,13.13c6,10.33,5.46,20.42-1.83,32.44-8.19,13.51-12.55,16.34-27.44,17.77-10.47,1-28.28-3.21-38-5.82Z"/><path id="Обводка_1-2" data-name="Обводка 1-2" class="cls-7" d="M857.2,736.94l-1.27-.34-.22-.06-.22-.06c-4.23-1.11-25.79-6.94-34.42-13.11-10-7.16-11.18-9.49-11.44-22.7-.27-13.64,4.68-18.9,12.19-22.62a15.43,15.43,0,0,0,2.08-1.21c-.21-5.34,2.76-10.76,4.26-13.15,6.23-11.12,13.26-24.38,15.7-30a18.93,18.93,0,0,1-.63-2.35l-.09-.36c-7-5.38-4.8-15.44-4-18.89a29.33,29.33,0,0,1,3.68-8.75l-3.92-5.79a8.12,8.12,0,0,1-1.24-6.1c0-.12,2.31-11.85,3.83-22.41,1-7.25,3.48-24.23,22.06-21.64a20.17,20.17,0,0,1,11,5.15,11.87,11.87,0,0,1,7.13-.78h.16l22,5.76H904l21.92,6.05H926a11.77,11.77,0,0,1,5.66,4.42,20.2,20.2,0,0,1,12.07,1c17.37,7.08,11,23,8.24,29.79-4,9.9-7.89,21.2-7.93,21.31a8.09,8.09,0,0,1-4.14,4.66l-6.28,3a29.43,29.43,0,0,1-1.21,9.42c-1.08,3.37-4.21,13.17-13,14.32l-.24.26a23.53,23.53,0,0,1-1.74,1.72c-.68,6-1.25,21-1.44,33.79.11,2.82,0,9-2.91,13.51a15.59,15.59,0,0,0,1.2,2.1c4.63,7,6.27,14-.8,25.67-6.85,11.3-9,12.73-21.28,13.91C882.54,743.46,863.4,738.61,857.2,736.94Z"/><path id="Основа-2" class="cls-8" d="M857.54,728.64s-23.91-6.25-31.75-11.86-7.84-5.62-8-16.27,3.1-12.93,7.67-15.19,7.13-4.8,6.63-8.35,3.09-9.12,3.09-9.12,19.16-34.17,17.39-35.2-1-6.09-3.77-7.62c-3-1.68-2.89-5.87-1.73-11.17s5.67-10.38,5.67-10.38l-7.06-10.43s2.33-11.92,3.9-22.82,3.85-16,12.92-14.76a12.87,12.87,0,0,1,9.37,6.63l-2.53,14.81,3.08-9.13c3.08-9.12,7.39-8.08,7.39-8.08l22,5.75h0l21.92,6.06s4.25,1.26,2.34,10.7l-1.91,9.44,5.23-14.08a12.87,12.87,0,0,1,11.44-1c8.47,3.45,7.89,9,3.77,19.25s-8.07,21.7-8.07,21.7L925.1,623s1.3,6.71-.34,11.8-3.64,8.86-7.1,8.8c-3.15-.06-5,4.71-7.09,4.7s-2.6,39.18-2.6,39.18.3,6.61-1.9,9.43-1.28,6.29,1.55,10.55,4.54,7.88-1,17-5.53,9.11-15.13,10-33.42-5.66-33.42-5.66"/></g><g id="Фоновые_объекты" data-name="Фоновые объекты"><g id="Пешка"><path id="Обводка_3-3" data-name="Обводка 3-3" class="cls-9" d="M290,140.44c-7.89-4.17-14.06-12.91-7.7-24.94a17.26,17.26,0,0,1,2.23-3.26,20.63,20.63,0,0,1,1.65-4.08A26.73,26.73,0,0,1,299.4,96.57a25.29,25.29,0,0,1-.54-11.08,14.86,14.86,0,0,1,2.83-6.39,23.29,23.29,0,0,1,2.24-6.1,21.47,21.47,0,0,1,16.31-11.4,32.86,32.86,0,0,1,32.45,17.11,21.44,21.44,0,0,1-.22,19.9,23.2,23.2,0,0,1-3.78,5.29,14.78,14.78,0,0,1-3.67,5.95,25.27,25.27,0,0,1-9.45,5.81,26.81,26.81,0,0,1-2.1,17.49,21.87,21.87,0,0,1-2.44,3.67,17.33,17.33,0,0,1-1.43,3.68c-6.36,12-17.06,11.87-25,7.7Z"/><path id="Обводка_2-3" data-name="Обводка 2-3" class="cls-10" d="M292.28,136c-10.74-5.67-7.5-14.61-5.61-18.19a12.19,12.19,0,0,1,2.33-3.1,17.25,17.25,0,0,1,1.55-4.24c.64-1.22,4.33-7.47,13.44-10.28a7,7,0,0,0,1.7-1.47,19.5,19.5,0,0,1-1.86-12.31,9.86,9.86,0,0,1,2.62-5.1,18.23,18.23,0,0,1,2-6c5.61-10.63,18.54-10.91,28.4-5.7s16.84,16,11.21,26.66a17.73,17.73,0,0,1-3.86,5,10,10,0,0,1-2.73,5,19.53,19.53,0,0,1-11.22,5.41,6.86,6.86,0,0,0-.29,2.25c2.8,9-.28,15.62-.93,16.85a16.12,16.12,0,0,1-2.63,3.66,12,12,0,0,1-1.25,3.68c-1.89,3.58-7.44,11.29-18.18,5.62Z"/><path id="Обводка_1-3" data-name="Обводка 1-3" class="cls-11" d="M294.62,131.6c-3.48-1.84-7-4.8-3.53-11.43a7.14,7.14,0,0,1,2.6-2.77,11.23,11.23,0,0,1,1.29-4.57c.29-.56,3.12-5.57,10.49-7.85,2.54-.78,5.25-4.38,6.34-6.26-4.26-4.38-3.25-10.65-3.11-11.39a5,5,0,0,1,2.56-3.49,12.69,12.69,0,0,1,1.52-6.21C317.05,69.55,327,70.1,334.43,74s13.48,11.83,9.26,19.92a12.65,12.65,0,0,1-4.26,4.75,5,5,0,0,1-1.44,4.08c-.54.54-5.14,4.91-11.17,3.86-.95,2-2.38,6.24-1.6,8.76,2.28,7.38-.26,12.53-.56,13.09a11.08,11.08,0,0,1-3.05,3.65,7.11,7.11,0,0,1-.83,3.7c-3.5,6.63-7.94,5.36-11.43,3.53Z"/><path id="Пешка-2" class="cls-12" d="M304.3,131.06,297,127.18c-3.05-1.62-2.73-2.23-1.44-4.68s6.83-1.08,4.39-2.37-.51-5-.51-5,1.94-3.67,7.55-5.4,9.48-9.07,9.48-9.07a3.5,3.5,0,0,0-.5-5c-3.22-2.62-2.31-7.47-2.31-7.47l7.65,4.27S313.69,86.7,317.19,80c3.88-7.34,14.89-1.53,14.89-1.53s11,5.82,7.14,13.16c-3.56,6.73-12.66,3.72-12.66,3.72l7.85,3.91s-3.5,3.49-7.48,2.31c-3.38-1-4.39,2.38-4.39,2.38s-3.88,7.34-2.14,13-.21,9.28-.21,9.28-1.94,3.67-4.39,2.38,1.8,2.51.51,5-1.61,3.06-4.67,1.44Z"/></g><g id="Пешка-3"><path id="Обводка_3-4" data-name="Обводка 3-4" class="cls-13" d="M186.61,681.33c-4.24,7.85-13,13.93-25,7.46a17.26,17.26,0,0,1-3.24-2.26,21.54,21.54,0,0,1-4.07-1.68,26.84,26.84,0,0,1-11.46-13.38,25.63,25.63,0,0,1-11.09.43,15.12,15.12,0,0,1-6.36-2.9,23.39,23.39,0,0,1-6.12-2.28A21.51,21.51,0,0,1,108,650.3,32.88,32.88,0,0,1,125.48,618a21.45,21.45,0,0,1,19.89.41,23,23,0,0,1,5.26,3.87,15,15,0,0,1,5.92,3.72,25.43,25.43,0,0,1,5.71,9.51,26.74,26.74,0,0,1,17.48,2.26,21.79,21.79,0,0,1,3.64,2.47,17.84,17.84,0,0,1,3.66,1.47c12,6.47,11.71,17.17,7.47,25Z"/><path id="Обводка_2-4" data-name="Обводка 2-4" class="cls-14" d="M182.21,679c-5.77,10.69-14.68,7.37-18.24,5.44a12.33,12.33,0,0,1-3.08-2.44,17.18,17.18,0,0,1-4.22-1.58c-1.22-.66-7.43-4.41-10.16-13.54a6.65,6.65,0,0,0-1.47-1.66A19.6,19.6,0,0,1,132.69,667a10,10,0,0,1-5.08-2.67,18,18,0,0,1-6-2c-10.57-5.71-10.74-18.64-5.43-28.46s16.2-16.76,26.77-11a18,18,0,0,1,5,3.91,10,10,0,0,1,5,2.78,19.52,19.52,0,0,1,5.3,11.27,6.61,6.61,0,0,0,2.25.3c9.08-2.71,15.62.44,16.84,1.1a16.13,16.13,0,0,1,3.64,2.66,12.15,12.15,0,0,1,3.71,1.26c3.56,1.93,11.21,7.56,5.44,18.24Z"/><path id="Обводка_1-4" data-name="Обводка 1-4" class="cls-15" d="M177.82,676.57c-1.88,3.47-4.87,7-11.47,3.42a7.26,7.26,0,0,1-2.75-2.61,11,11,0,0,1-4.55-1.33c-.56-.3-5.54-3.17-7.75-10.57-.76-2.55-4.33-5.29-6.2-6.39-4.43,4.22-10.68,3.14-11.42,3a5,5,0,0,1-3.47-2.59,12.64,12.64,0,0,1-6.19-1.58c-8-4.35-7.4-14.28-3.4-21.68s12-13.38,20-9a12.52,12.52,0,0,1,4.71,4.31A5,5,0,0,1,149.4,633c.53.54,4.86,5.18,3.75,11.19,2,1,6.22,2.44,8.75,1.69,7.4-2.21,12.52.38,13.08.68a11.11,11.11,0,0,1,3.62,3.09,7.17,7.17,0,0,1,3.69.86c6.59,3.57,5.29,8,3.42,11.47Z"/><path id="Пешка-4" class="cls-16" d="M177.36,666.89l-3.94,7.31c-1.65,3-2.26,2.71-4.69,1.4s-1-6.85-2.34-4.41-5,.46-5,.46-3.65-2-5.33-7.6-9-9.57-9-9.57a3.45,3.45,0,0,0-4.87.3l-.13.16c-2.65,3.19-7.5,2.24-7.5,2.24l4.35-7.61s-5.89,7.56-12.59,3.94c-7.3-4-1.38-14.9-1.38-14.9s5.92-11,13.22-7c6.7,3.62,3.6,12.69,3.6,12.69l4-7.81S149.21,640,148,644a3.46,3.46,0,0,0,2.21,4.37l.13,0s7.3,4,12.93,2.27,9.28.29,9.28.29,3.65,2,2.33,4.41,2.54-1.77,5-.46,3,1.65,1.4,4.69Z"/></g><g id="Пешка-5"><path id="Обводка_3-5" data-name="Обводка 3-5" class="cls-17" d="M764.69,376c-7.16,2.11-16,.47-19.17-10.45a13.84,13.84,0,0,1-.57-3.26,18.39,18.39,0,0,1-1.4-3.41,22.55,22.55,0,0,1,1.19-14.69,21.18,21.18,0,0,1-6.79-6.33,12.53,12.53,0,0,1-2-5.48,19.41,19.41,0,0,1-2.25-5A18,18,0,0,1,736.81,311a27.5,27.5,0,0,1,29.46-8.68,17.93,17.93,0,0,1,11.49,12,19.35,19.35,0,0,1,.81,5.4,12.54,12.54,0,0,1,1.27,5.71,21.21,21.21,0,0,1-2.27,9,22.46,22.46,0,0,1,9,11.71,17.77,17.77,0,0,1,.67,3.62,14.76,14.76,0,0,1,1.29,3c3.22,10.92-3.29,17.07-10.45,19.18Z"/><path id="Обводка_2-5" data-name="Обводка 2-5" class="cls-18" d="M763.54,372c-9.75,2.87-13-4.37-14-7.62a10.29,10.29,0,0,1-.42-3.22,13.62,13.62,0,0,1-1.54-3.44,19,19,0,0,1,2-14,5.48,5.48,0,0,0,.13-1.85,16.39,16.39,0,0,1-8.31-6.3A8.21,8.21,0,0,1,740,331a15.21,15.21,0,0,1-2.34-4.74c-2.84-9.64,4.74-17.36,13.69-20s19.51-.26,22.35,9.38a15,15,0,0,1,.6,5.25,8.4,8.4,0,0,1,1.31,4.62,16.32,16.32,0,0,1-3.57,9.79,5.5,5.5,0,0,0,1.15,1.51,18.87,18.87,0,0,1,9.27,10.64,13.87,13.87,0,0,1,.57,3.73,10.4,10.4,0,0,1,1.4,2.93c1,3.25,2.13,11.12-7.62,14Z"/><path id="Обводка_1-5" data-name="Обводка 1-5" class="cls-19" d="M762.36,368c-3.16.93-7,1.23-8.79-4.79a6,6,0,0,1-.07-3.17,9.27,9.27,0,0,1-1.89-3.49c-.15-.51-1.38-5.16,1.71-10.83,1.06-2,.58-5.69.14-7.45-5.12-.14-8.17-4.49-8.52-5a4.22,4.22,0,0,1-.5-3.59,10.52,10.52,0,0,1-2.75-4.68c-2.16-7.34,4.12-12.82,10.86-14.81s15-.78,17.15,6.55a10.63,10.63,0,0,1,.23,5.34,4.22,4.22,0,0,1,1.52,3.29c0,.63-.22,5.94-4.44,8.83.6,1.76,2.21,5.12,4.16,6.18,5.67,3.09,7.15,7.66,7.3,8.17a9.18,9.18,0,0,1,.3,4,6,6,0,0,1,1.66,2.71c1.78,6-1.62,7.85-4.78,8.78Z"/><path id="Пешка-6" class="cls-20" d="M767.84,362l-6.66,2c-2.78.82-2.94.26-3.6-2s3.46-4.64,1.24-4-3.2-2.67-3.2-2.67-1-3.33,1.37-7.65.39-11,.39-11A2.89,2.89,0,0,0,754.3,334h-.12c-3.46.31-5.75-3.13-5.75-3.13L755.5,329s-8,1-9.76-5.15c-2-6.66,8-9.6,8-9.6s10-2.95,12,3.72c1.8,6.1-5.41,9.61-5.41,9.61l7-2.23s-.06,4.13-3.13,5.75a2.9,2.9,0,0,0-1.31,3.87c0,.05.05.09.07.13s2,6.66,6.28,9a10.88,10.88,0,0,1,5.29,5.69s1,3.33-1.24,4,2.55.46,3.2,2.68.82,2.77-2,3.59Z"/></g><g id="Конь"><path id="Обводка_3-6" data-name="Обводка 3-6" class="cls-21" d="M475.26,524c-11.4-5.77-14.51-15.87-8.52-27.69a17.42,17.42,0,0,1,9.64-8.8,13.08,13.08,0,0,1,7.84-3.23,16.26,16.26,0,0,0,.41-2.94,17.9,17.9,0,0,1,6.25-13.14c4.63-4,10.43-5,14.71-5.22-3.7-4.44-5.07-10.76-3.53-17.53,1.85-8.11,9.36-11.55,15.63-11.35a52.93,52.93,0,0,0,9.63-1.27,18.53,18.53,0,0,1,8.52-5.08l.83-5.59a11.17,11.17,0,0,1,21.27-2.88l7,15.85c5.79,3.89,14,12.92,12.33,32.38-1,10.92-8.8,23.94-23.26,38.7-3.81,3.89-8,7.78-12.33,11.6,2,3.64,3,9.23-.88,16.86-3.61,7.13-8.36,10-11.71,11.17a15.67,15.67,0,0,1-12-.64Z"/><path id="Обводка_2-6" data-name="Обводка 2-6" class="cls-22" d="M476.94,520.69c-6.67-3.38-13.27-10.06-6.88-22.69a13.58,13.58,0,0,1,8.3-7.22,9.73,9.73,0,0,1,8.58-2.68,21.06,21.06,0,0,0,1.41-6.6,14.26,14.26,0,0,1,5-10.46c5-4.28,12-4.48,15.17-4.31,2.61-.44,5.28-1,7.9-1.49h-.13a16.08,16.08,0,0,1-3.62-1.28c-6.06-3.07-8.71-9.83-6.93-17.65,1.39-6.12,7.16-8.65,12-8.44a49.59,49.59,0,0,0,11.74-1.75c2-2.68,5.36-4.48,9.71-5.3l1.19-8.08a7.45,7.45,0,0,1,14.18-1.92L562,437.71c4.83,2.91,13.23,10.74,11.57,29.51-.89,10-8.36,22.3-22.21,36.42-5.07,5.18-10,9.64-13.79,12.85a10.34,10.34,0,0,1,.19,2c2.7,3.94,2.61,8.8-.27,14.48-3,6-6.91,8.4-9.61,9.34a11.83,11.83,0,0,1-9.08-.44Z"/><path id="Обводка_1-6" data-name="Обводка 1-6" class="cls-23" d="M478.62,517.37c-11.29-5.72-6.89-14.41-5.23-17.68a10,10,0,0,1,6.92-5.61l.18-.05c1.7-2.44,5.05-3,8.51-1.45a26.46,26.46,0,0,0,3.07-10.92,10.61,10.61,0,0,1,3.66-7.8c4.29-3.68,10.88-3.53,12.94-3.38a213.34,213.34,0,0,0,24.09-5.42,12.42,12.42,0,0,1-2.9-1.05,17.06,17.06,0,0,0-6.13-1.39,51.7,51.7,0,0,1-6.66-1,11.84,11.84,0,0,1-2.76-1c-4.52-2.3-6.39-7.34-5-13.5.94-4.13,4.94-5.75,8.36-5.54,6.19-.26,12.86-1.48,14.29-2.6,2.19-3.55,7-4.58,10.45-4.85L544,423.27a3.72,3.72,0,0,1,7.09-1l8,18c3.77,1.92,12.37,8.34,10.76,26.54-.82,9.19-7.94,20.7-21.18,34.19a210,210,0,0,1-15.52,14.27,6.18,6.18,0,0,1,.74,4.37c2,2.18,3.36,5.53.25,11.66-4.52,8.94-10.93,8.66-13.69,7.26Z"/><path id="Конь-2" class="cls-24" d="M566.15,466.53c1.77-20-9.87-23.36-9.87-23.36l-8.59-19.37-2.07,14s-8.43-.45-10.56,3.24-17.46,4.28-17.46,4.28-4-.36-4.67,2.64-1,8.65,4.94,10,9.66.72,13.64,2.74,6.66,0,6.66,0,6.34-1,4,3.69-33.36,9.82-33.36,9.82-12.65-1.4-13,7.59a30.45,30.45,0,0,1-5.41,15.62l-2.71-1.32s-3.33-1.68-4.34.31-4.33.31-6.68,5-3.71,9,3.6,12.68l25.24,12.78,16.61,8.42s4.65,2.35,8.69-5.62-2-7.67-.95-9.66a2.73,2.73,0,0,0-.85-3.77,2.47,2.47,0,0,0-.46-.23l-1.33-.67S564.38,486.51,566.15,466.53Z"/></g><g id="Конь-3"><path id="Обводка_3-7" data-name="Обводка 3-7" class="cls-25" d="M1046.69,285.13c-12.14,4-21.47-1-25.6-13.56a17.41,17.41,0,0,1,.59-13,13,13,0,0,1,3.27-7.83,15.91,15.91,0,0,0-1.8-2.37,17.86,17.86,0,0,1-4.86-13.71c.46-6.07,3.8-10.94,6.7-14.09-5.75-.52-11.19-4-14.89-9.91-4.42-7-1.55-14.78,3-19.07a52.71,52.71,0,0,0,5.91-7.71,18.47,18.47,0,0,1,2.44-9.61l-3.38-4.55a11.17,11.17,0,0,1,13-17.07l16.16,6.26c6.85-1.35,19.08-.81,31.62,14.17,7,8.41,10.71,23.15,10.92,43.81,0,5.45-.12,11.13-.52,16.92,4,1.2,8.64,4.41,11.3,12.54,2.49,7.59,1.17,13-.38,16.18a15.7,15.7,0,0,1-8.93,8Z"/><path id="Обводка_2-7" data-name="Обводка 2-7" class="cls-26" d="M1045.57,281.59c-7.1,2.32-16.49,2.27-20.9-11.18a13.54,13.54,0,0,1,.76-11,9.7,9.7,0,0,1,4.17-8,21.1,21.1,0,0,0-3.66-5.67,14.21,14.21,0,0,1-3.9-10.91c.5-6.55,5.29-11.62,7.68-13.77,1.53-2.16,3.07-4.41,4.54-6.64l-.12.08a15.67,15.67,0,0,1-3.46,1.64c-6.46,2.12-13.12-.79-17.39-7.57-3.34-5.32-1-11.18,2.53-14.46a49.49,49.49,0,0,0,7.06-9.54c-.44-3.35.62-7,3.12-10.61l-4.87-6.56A7.45,7.45,0,0,1,1029.8,156l17.22,6.66c5.48-1.36,17-1.76,29,12.69,6.47,7.73,9.86,21.68,10,41.46.08,7.24-.28,13.91-.67,18.83A11.14,11.14,0,0,1,1087,237c4.69.88,8.07,4.38,10,10.43,2.1,6.41,1.06,10.83-.19,13.4a11.88,11.88,0,0,1-6.74,6.11Z"/><path id="Обводка_1-7" data-name="Обводка 1-7" class="cls-27" d="M1044.41,278.05c-12,3.94-15.06-5.32-16.2-8.8a10,10,0,0,1,.93-8.86l.09-.16c-.52-2.94,1.43-5.72,5-7.05a26.45,26.45,0,0,0-5.54-9.89,10.61,10.61,0,0,1-2.93-8.1c.43-5.64,5.2-10.2,6.76-11.55a209.11,209.11,0,0,0,13.17-20.86,12.4,12.4,0,0,1-2.78,1.31c-1.91.62-3.34,1.77-5.32,3.35a54.73,54.73,0,0,1-5.44,4,11.64,11.64,0,0,1-2.64,1.26c-4.83,1.58-9.71-.67-13.07-6-2.26-3.58-.58-7.56,2-9.84,4.19-4.55,8-10.14,8.27-11.93-1-4.07,1.73-8.22,4-10.83l-6.54-8.81a3.7,3.7,0,0,1,1.81-5.76,3.7,3.7,0,0,1,2.5.07l18.38,7.11c4-1.32,14.64-2.86,26.38,11.15,5.9,7,9,20.21,9.18,39.11.09,8.59-.45,16.36-.88,21.06a6.18,6.18,0,0,1,3.61,2.57c2.94.15,6.28,1.53,8.42,8.07,3.12,9.52-1.61,13.85-4.55,14.81Z"/><path id="Конь-4" class="cls-28" d="M1070.36,180.21c-12.87-15.37-23.5-9.54-23.5-9.54L1027.12,163l8.41,11.35s-6.27,5.64-5.17,9.75-9.32,15.37-9.32,15.37-3.08,2.58-1.44,5.17,5.38,6.86,10.58,3.59,7.33-6.32,11.58-7.71,4.73-4.68,4.73-4.68,3.8-5.17,5.42-.21-16.65,30.53-16.65,30.53-9.93,8-3.84,14.58a30.48,30.48,0,0,1,7.22,14.87l-2.83.93s-3.54,1.16-2.84,3.28-2.84,3.29-1.22,8.24,3.72,9,11.51,6.42l26.89-8.81,17.69-5.8s5-1.62,2.18-10.11-6.81-4-7.51-6.16a2.73,2.73,0,0,0-3.26-2.07,2.24,2.24,0,0,0-.5.16l-1.41.47S1083.23,195.59,1070.36,180.21Z"/></g></g></svg>