<?xml version="1.0" encoding="utf-8"?>
<!-- Generator: Adobe Illustrator 22.1.0, SVG Export Plug-In . SVG Version: 6.00 Build 0)  -->
<svg version="1.1" id="cosmos" xmlns="http://www.w3.org/2000/svg" xmlns:xlink="http://www.w3.org/1999/xlink" x="0px" y="0px"
	 viewBox="0 0 1647 1306" style="enable-background:new 0 0 1647 1306;" xml:space="preserve">
<style type="text/css">
	.st0{fill:#17173A;}
	.st1{fill:url(#Большая_волна_1_);}
	.st2{fill:url(#Малая_волна_1_);}
	.st3{fill:url(#Волна_позади_1_);}
	.st4{opacity:0.2;fill:#FFFFFF;enable-background:new    ;}
	.st5{opacity:0.8;fill:url(#Желтый_1_);enable-background:new    ;}
	.st6{opacity:0.5;fill:url(#Перекрытие_1_);enable-background:new    ;}
	.st7{opacity:0.4;fill:#F2A0FF;enable-background:new    ;}
	.st8{opacity:0.4;fill:url(#Осветление_1_);enable-background:new    ;}
	.st9{fill:url(#Диск_1_);}
	.st10{fill:none;stroke:#FFFFFF;stroke-width:4;stroke-linecap:round;stroke-miterlimit:10;}
	.st11{opacity:0.15;fill:url(#Обводка_3_1_);enable-background:new    ;}
	.st12{opacity:0.15;fill:url(#Обводка_2_1_);enable-background:new    ;}
	.st13{opacity:0.15;fill:url(#Обводка_1_1_);enable-background:new    ;}
	.st14{fill:url(#Основа_1_);}
	.st15{fill:#1088FF;}
	.st16{opacity:0.15;fill:url(#Обводка_3-2_1_);enable-background:new    ;}
	.st17{opacity:0.15;fill:url(#Обводка_2-2_1_);enable-background:new    ;}
	.st18{opacity:0.15;fill:url(#Обводка_1-2_1_);enable-background:new    ;}
	.st19{fill:url(#Пешка-2_1_);}
	.st20{opacity:0.15;fill:url(#Обводка_3-3_1_);enable-background:new    ;}
	.st21{opacity:0.15;fill:url(#Обводка_2-3_1_);enable-background:new    ;}
	.st22{opacity:0.15;fill:url(#Обводка_1-3_1_);enable-background:new    ;}
	.st23{fill:url(#Пешка-4_1_);}
	.st24{opacity:0.15;fill:url(#Обводка_3-4_1_);enable-background:new    ;}
	.st25{opacity:0.15;fill:url(#Обводка_2-4_1_);enable-background:new    ;}
	.st26{opacity:0.15;fill:url(#Обводка_1-4_1_);enable-background:new    ;}
	.st27{fill:url(#Пешка-6_1_);}
	.st28{opacity:0.15;fill:url(#Обводка_3-5_1_);enable-background:new    ;}
	.st29{opacity:0.15;fill:url(#Обводка_2-5_1_);enable-background:new    ;}
	.st30{opacity:0.15;fill:url(#Обводка_1-5_1_);enable-background:new    ;}
	.st31{fill:url(#Конь-2_1_);}
</style>
<g>
	<g id="Фон">
		<path class="st0" d="M239,48c0,0-126,11-172,160C33.8,315.6,41.6,439.8,53,559c11,115,37.7,391.6,165.7,559.6
			C350.3,1291.3,533,1310,636,1305c92.6-4.5,319-69,498-57c134.4,9,265,48,338,11c56.4-28.6,224-149,161-513
			c-65.1-376.2,5-728-258-743c-240.2-13.7-392,28-572,40C648.8,53.3,307,36,239,48z"/>
		
			<animate  accumulate="none" additive="replace" attributeName="fill" calcMode="linear" dur="1s" fill="remove" from="#000" restart="always" to="#fff" xlink:href="#Фон &gt; .cls-3">
			</animate>
	</g>
	<g id="Фигура">
		
			<linearGradient id="Большая_волна_1_" gradientUnits="userSpaceOnUse" x1="807.6383" y1="-183.0578" x2="749.0803" y2="-515.1459" gradientTransform="matrix(1 0 0 1 0 1106)">
			<stop  offset="0" style="stop-color:#00367F"/>
			<stop  offset="0.22" style="stop-color:#023981"/>
			<stop  offset="0.38" style="stop-color:#074289"/>
			<stop  offset="0.52" style="stop-color:#0F5296"/>
			<stop  offset="0.65" style="stop-color:#1B68A8"/>
			<stop  offset="0.77" style="stop-color:#2B85C0"/>
			<stop  offset="0.89" style="stop-color:#3EA8DC"/>
			<stop  offset="1" style="stop-color:#54D1FE"/>
			<stop  offset="1" style="stop-color:#55D2FF"/>
		</linearGradient>
		<path id="Большая_волна" class="st1" d="M720.8,932c15.6-9,14.4-16.7,13.4-23.1s9.4-6.7,19.5-9.6s9.7-30.4,13.9-53.3
			s2.1-44.9,18.8-55.4s11.5-18.8,13.1-33.5s27.1-52.8,35.3-67.2s66.4-69.5,95-96.3s38.2-10.9,38.2-10.9s5.5,7.3,24.1,23.4
			c27.1,23.4,17.9-2.8,17.9-2.8s-11.1-20.5-4.6-29.4s4.6-12.5,4.6-12.5l-5.5-8.3c-101.1-14.9-146.5,80-192,109.7
			c-33.1,21.7-76.4,8.5-128.5-11.9c-9.7,0-16.6-0.4-24.8,12.7c-10.5,16.7-32.5,14.6-55.4,18.8s-50.5,3.9-53.4,13.9
			s-3.2,20.5-9.6,19.5s-14.1-2.2-23.1,13.4s-14.2,6.9,3.6,26.8c17.8,19.9,85.6,87,85.6,87l0,0c0,0,67.2,67.8,87,85.6
			S705.1,941,720.8,932z"/>
		
			<linearGradient id="Малая_волна_1_" gradientUnits="userSpaceOnUse" x1="710.5394" y1="-165.917" x2="671.3753" y2="-388.0272" gradientTransform="matrix(1 0 0 1 0 1106)">
			<stop  offset="0" style="stop-color:#54006A"/>
			<stop  offset="0.23" style="stop-color:#56036C"/>
			<stop  offset="0.37" style="stop-color:#5B0B72"/>
			<stop  offset="0.49" style="stop-color:#641A7D"/>
			<stop  offset="0.6" style="stop-color:#712F8D"/>
			<stop  offset="0.71" style="stop-color:#814BA0"/>
			<stop  offset="0.8" style="stop-color:#966CB9"/>
			<stop  offset="0.9" style="stop-color:#AE94D6"/>
			<stop  offset="0.98" style="stop-color:#C9C1F7"/>
			<stop  offset="1" style="stop-color:#D0CCFF"/>
		</linearGradient>
		<path id="Малая_волна" class="st2" d="M753.7,899.3c10-2.9,9.7-30.4,13.9-53.3s2.1-44.9,18.8-55.4s11.5-18.8,13.1-33.5
			c0.9-8.4,9.7-24.5,18.5-39.4c-8.7,8.8-17.1,16.5-25.5,22c-33.2,21.7-70.9,12.4-123-8c-6-2-22.1-4.3-30.3,8.8
			c-10.5,16.7-56.7-7-79.7-2.8c-19.2,3.5-27,23-25.8,31.3c26,27,73.3,73.9,73.3,73.9l0,0c0,0,67.2,67.8,87,85.6s11.2,12.6,26.8,3.6
			s14.4-16.7,13.4-23.1S743.6,902.2,753.7,899.3z"/>
		
			<linearGradient id="Волна_позади_1_" gradientUnits="userSpaceOnUse" x1="759.8" y1="-432.3698" x2="759.8" y2="-478.2932" gradientTransform="matrix(1 0 0 1 0 1106)">
			<stop  offset="0" style="stop-color:#00367F"/>
			<stop  offset="0.13" style="stop-color:#074389"/>
			<stop  offset="0.37" style="stop-color:#1964A5"/>
			<stop  offset="0.69" style="stop-color:#3699D0"/>
			<stop  offset="1" style="stop-color:#55D2FF"/>
		</linearGradient>
		<path id="Волна_позади" class="st3" d="M812.5,662.5c3.6-2.4,7.1-5,10.3-7.8c-3.1-1.3-5.2-6-13.8-14.7
			c-12-12-22-13-40-12c-34.1,1.9-72.1,27.5-72.2,27.5C743.2,673,782.1,682.3,812.5,662.5z"/>
		<path id="Оттеск" class="st4" d="M1122.1,449c-12.3-3.3-0.7-20.9-12.3-28.2s-24.3,3.8-2.8-17.9s-8-52.1-8-52.1l0,0
			c0,0-30.4-29.5-52.2-8s-10.6,8.8-17.9-2.8s-24.9,0-28.2-12.3c-2.9-10.8-14.2-18.9-21.3-4.8c-10.2,88.6-48.9,185.7-115.3,274
			C780.3,708.3,671,781.4,568.8,804.6c20,20.1,38.1,38.1,38.1,38.1l0,0c0,0,67.2,67.8,87,85.6s11.2,12.7,26.8,3.7
			s14.4-16.7,13.4-23.1s9.4-6.7,19.5-9.6s9.7-30.4,13.9-53.3s2.1-44.9,18.8-55.4s11.5-18.8,13.1-33.5s27.1-52.8,35.3-67.2
			s66.4-69.5,95-96.3s38.2-10.9,38.2-10.9s5.5,7.3,24.1,23.4c27.1,23.4,17.9-2.8,17.9-2.8s-11.1-20.5-4.6-29.4s4.6-12.5,4.6-12.5
			l-8.6-13.1c0,0,10.6-16.1,15.2-11.6s13.4,1.8,16.6-2.6s-0.7-13-0.7-13c2.9-2.4,5.6-5,8-7.8c11.9-14,55-33.6,79-40
			S1134.4,452.3,1122.1,449z"/>
		
			<linearGradient id="Желтый_1_" gradientUnits="userSpaceOnUse" x1="821.7355" y1="-166.1548" x2="821.7355" y2="-790.9065" gradientTransform="matrix(1 0 0 1 0 1106)">
			<stop  offset="0" style="stop-color:#FFFF00"/>
			<stop  offset="8.000000e-02" style="stop-color:#FFFF00;stop-opacity:0.72"/>
			<stop  offset="0.16" style="stop-color:#FFFF00;stop-opacity:0.47"/>
			<stop  offset="0.24" style="stop-color:#FFFF00;stop-opacity:0.27"/>
			<stop  offset="0.3" style="stop-color:#FFFF00;stop-opacity:0.12"/>
			<stop  offset="0.35" style="stop-color:#FFFF00;stop-opacity:3.000000e-02"/>
			<stop  offset="0.38" style="stop-color:#FFFF00;stop-opacity:0"/>
		</linearGradient>
		<path id="Желтый" class="st5" d="M606.9,842.7c0,0-67.8-67.2-85.6-87s-12.7-11.2-3.6-26.8c9-15.6,16.7-14.4,23.1-13.4
			s6.7-9.5,9.6-19.5s30.4-9.7,53.3-13.9s44.9-2.1,55.4-18.8s18.8-11.5,33.5-13.1s52.8-27.1,67.2-35.3s69.5-66.4,96.3-95
			s10.9-38.2,10.9-38.2s-7.3-5.5-23.4-24.1c-23.4-27.1,2.8-17.9,2.8-17.9s20.5,11.1,29.4,4.6s12.5-4.6,12.5-4.6l13.1,8.6
			c0,0,16.1-10.6,11.6-15.2s-1.8-13.4,2.6-16.6s13,0.7,13,0.7c2.4-2.9,5-5.5,7.8-8c14-11.9,33.6-55,40-79s20.7-15.1,24-2.8
			s20.9,0.7,28.2,12.3c7.3,11.6-3.8,24.3,17.9,2.8s52.2,8,52.2,8l0,0c0,0,29.5,30.4,8,52.1s-8.8,10.6,2.8,17.9s0,24.9,12.3,28.2
			s21.1,17.6-2.8,24s-67,26-79,40c-2.4,2.8-5.1,5.4-8,7.8c0,0,4,8.6,0.7,13s-12,7.1-16.6,2.6s-15.2,11.6-15.2,11.6l8.6,13.1
			c0,0,1.9,3.6-4.6,12.5s4.6,29.4,4.6,29.4s9.2,26.2-17.9,2.8c-18.6-16.1-24.1-23.4-24.1-23.4s-9.6-15.9-38.2,10.9
			s-86.8,81.9-95,96.3s-33.7,52.5-35.3,67.2s3.6,23-13.1,33.5s-14.4,32.6-18.7,55.6s-3.9,50.5-13.9,53.3s-20.5,3.2-19.5,9.6
			s2.2,14.1-13.4,23.1s-6.9,14.2-26.8-3.7S607,842.7,606.9,842.7"/>
		
			<linearGradient id="Перекрытие_1_" gradientUnits="userSpaceOnUse" x1="969.6496" y1="-323.7878" x2="744.1872" y2="-645.7885" gradientTransform="matrix(1 0 0 1 0 1106)">
			<stop  offset="0" style="stop-color:#830094"/>
			<stop  offset="1" style="stop-color:#EBAAFF"/>
		</linearGradient>
		<path id="Перекрытие" class="st6" d="M616.3,880.4c-12.6-12.6-22.2-22.2-23.5-23.5c-3.5-3.5-68.4-67.8-86.4-87.8
			c-1.9-2-3.4-3.8-4.8-5.3c-5.7-6.3-8.9-9.7-10.9-15.1c-4.6-12.7,3.2-21.7,5.8-24.7c1.4-1.6,2.7-3.3,3.8-5.2
			c9.5-16.5,20.6-22,29.5-23.5c0.4-1.6,0.8-3.2,1.3-5c5.8-20,28.5-22.7,50.5-25.4c6.2-0.8,12.6-1.5,18.4-2.6
			c6.1-1.1,11.8-1.8,17.2-2.5c14.9-1.8,22.2-3.1,24.9-7.3c13.9-22.1,30.2-22.1,41-22.1c2.4,0,4.8,0,7.2-0.2
			c8.1-1.4,35.9-18.5,46.4-24.9c5.2-3.2,9.7-6,13.2-7.9c3.1-1.8,19-13.9,91.6-91.3c5.4-5.8,8-9.8,9.2-12.1
			c-7.9-7.4-15.3-15.2-22.2-23.4c-5.6-6.4-9.3-11.7-11.6-16.6c-5.8-12.4-1.9-21.4,1-25.5c6.9-10.1,20-13,35.2-7.6
			c1,0.3,2,0.8,2.9,1.3c3.5,1.8,7.2,3.2,11,4.1c10.4-6.7,18.7-7.4,24.5-6.3c1.7-7.8,6.1-14.7,12.4-19.6c5.3-3.8,11.7-5.6,18.2-5.1
			c0.5-0.4,0.9-0.8,1.4-1.2c9-7.7,27.2-45,33.6-68.9c7.2-27,24.3-29.9,31.3-29.9c11.6,0,22.3,7.4,28.2,18.8
			c6.1,0.2,15.6,1.4,23.4,8.4c14-9.3,31.4-10.1,49.2-2c8.6,4,16.6,9.4,23.6,15.9c0.1,0.1,0.3,0.3,0.4,0.4c6.5,7,11.9,14.9,15.9,23.6
			c8.1,17.8,7.3,35.2-2,49.2c7,7.8,8.2,17.3,8.4,23.4c11.4,5.9,18.8,16.6,18.8,28.1c0,7-2.9,24.1-29.9,31.3
			c-23.9,6.4-61.2,24.6-68.9,33.6c-0.4,0.5-0.8,0.9-1.2,1.4c0.5,6.5-1.3,12.9-5.1,18.2c-4.8,6.3-11.8,10.7-19.6,12.4
			c1.1,5.8,0.4,14.1-6.3,24.5c0.9,3.9,2.3,7.6,4.1,11.1c0.5,0.9,0.9,1.8,1.2,2.8c5.3,15.2,2.5,28.3-7.6,35.2
			c-4.2,2.9-13.1,6.8-25.6,1c-4.9-2.3-10.2-6-16.7-11.6c-8.2-6.9-16-14.3-23.4-22.2c-2.4,1.2-6.4,3.7-12.2,9.2
			c-77.4,72.6-89.4,88.5-91.3,91.6c-2,3.5-4.7,8-7.9,13.2c-6.4,10.5-23.5,38.3-24.9,46.4c-0.2,2.4-0.3,4.8-0.2,7.2
			c0,10.8,0,27.1-22.1,41c-4.2,2.7-5.5,10-7.3,24.9c-0.7,5.5-1.3,11.2-2.5,17.3c-1.1,5.8-1.8,12.2-2.6,18.4
			c-2.7,22-5.5,44.8-25.4,50.5c-1.7,0.5-3.4,0.9-5,1.3c-1.5,9-6.9,20-23.5,29.5c-1.9,1.1-3.6,2.3-5.2,3.8
			c-11.9,10.4-21.5,6.9-24.6,5.8c-5.4-2-8.8-5.1-15.1-10.8c-1.5-1.4-3.2-3-5.3-4.8C668,931.9,637.8,901.9,616.3,880.4z"/>
		<path id="Обводка" class="st7" d="M1135.6,432.9c-0.2-6.1-1.4-15.6-8.4-23.4c9.3-14,10.1-31.4,2-49.2
			c-4-8.6-9.4-16.6-15.9-23.6c-0.1-0.1-0.3-0.3-0.4-0.4c-7-6.5-14.9-11.9-23.6-15.9c-17.8-8.1-35.2-7.3-49.2,2
			c-7.8-7-17.3-8.1-23.4-8.4c-5.9-11.4-16.6-18.8-28.2-18.8c-7,0-24.1,2.9-31.3,29.9c-6.4,23.9-24.6,61.2-33.6,68.9
			c-0.5,0.4-1,0.8-1.4,1.2c-6.5-0.5-13,1.3-18.2,5.1c-6.3,4.8-10.7,11.8-12.4,19.6c-5.8-1.1-14.1-0.4-24.5,6.3
			c-3.8-0.9-7.5-2.3-11-4.1c-0.9-0.5-1.9-0.9-2.9-1.3c-15.2-5.3-28.3-2.5-35.2,7.6c-2.9,4.2-6.8,13.1-1,25.5
			c2.3,4.9,6,10.2,11.6,16.7c6.9,8.2,14.3,16.1,22.2,23.4c-1.2,2.4-3.7,6.4-9.2,12.1c-72.6,77.4-88.5,89.5-91.6,91.3
			c-3.5,2-8,4.8-13.2,7.9c-10.5,6.4-38.3,23.5-46.4,24.9c-2.4,0.2-4.8,0.3-7.2,0.2c-10.8,0-27.1,0-41,22.1c-2.7,4.2-10,5.5-24.9,7.3
			c-5.5,0.7-11.2,1.3-17.2,2.5c-5.8,1.1-12.2,1.8-18.4,2.6c-22,2.7-44.8,5.5-50.5,25.4c-0.5,1.7-0.9,3.4-1.3,5
			c-8.9,1.5-20,6.9-29.5,23.5c-1.1,1.9-2.3,3.6-3.8,5.2c-2.6,3-10.4,11.9-5.8,24.7c2,5.4,5.1,8.8,10.9,15.1c1.4,1.5,3,3.2,4.8,5.3
			c17.9,19.9,82.8,84.3,86.4,87.8c1.3,1.3,10.9,11,23.5,23.5c21.5,21.5,51.8,51.5,64.3,62.8c2.1,1.8,3.8,3.4,5.3,4.8
			c6.3,5.7,9.7,8.9,15.1,10.8c3.2,1.2,12.7,4.6,24.7-5.8c1.6-1.4,3.3-2.7,5.2-3.8c16.5-9.5,22-20.6,23.5-29.5c1.6-0.4,3.2-0.8,5-1.3
			c20-5.8,22.7-28.5,25.4-50.5c0.8-6.2,1.5-12.6,2.6-18.4c1.1-6.1,1.8-11.8,2.5-17.3c1.8-14.9,3.1-22.2,7.3-24.9
			c22.1-13.9,22.1-30.2,22.1-41c0-2.4,0-4.8,0.2-7.2c1.4-8.1,18.5-35.9,24.9-46.4c3.2-5.2,6-9.7,7.9-13.2c1.8-3.1,13.9-19,91.3-91.6
			c5.8-5.4,9.8-8,12.2-9.2c7.4,7.9,15.2,15.3,23.4,22.2c6.5,5.6,11.8,9.3,16.7,11.6c12.4,5.8,21.3,1.9,25.6-1
			c10.1-6.9,12.9-20,7.6-35.2c-0.3-1-0.8-1.9-1.2-2.8c-1.8-3.5-3.2-7.2-4.1-11.1c6.7-10.4,7.4-18.7,6.3-24.5
			c7.8-1.7,14.7-6.1,19.6-12.4c3.8-5.3,5.6-11.7,5.1-18.2c0.4-0.5,0.8-0.9,1.2-1.4c7.7-9,45-27.2,68.9-33.6
			c27-7.2,29.9-24.3,29.9-31.3C1154.4,449.5,1147,438.8,1135.6,432.9z M1119.4,473.1c-23.9,6.4-67,26-79,40c-2.4,2.8-5.1,5.4-8,7.8
			c0,0,4,8.6,0.7,13s-12,7.1-16.6,2.6s-15.2,11.6-15.2,11.6l8.6,13.1c0,0,1.9,3.6-4.6,12.5s4.6,29.4,4.6,29.4s9.2,26.2-17.9,2.8
			c-18.6-16.1-24.1-23.4-24.1-23.4s-9.6-15.9-38.2,10.9s-86.8,81.9-95,96.3S801,742.3,799.4,757s3.6,23-13.1,33.5
			s-14.5,32.5-18.7,55.4s-3.9,50.5-13.9,53.3s-20.5,3.2-19.5,9.6s2.2,14.1-13.4,23.1s-6.9,14.2-26.8-3.7s-87-85.6-87-85.6l0,0
			c0,0-67.8-67.2-85.6-87s-12.7-11.2-3.6-26.8c9-15.6,16.7-14.4,23.1-13.4s6.7-9.5,9.6-19.5s30.4-9.7,53.3-13.9s44.9-2.1,55.4-18.8
			s18.8-11.5,33.5-13.1s52.8-27.1,67.2-35.3s69.5-66.4,96.3-95s10.9-38.2,10.9-38.2s-7.3-5.5-23.4-24.1
			c-23.4-27.1,2.8-17.9,2.8-17.9s20.5,11.1,29.4,4.6s12.5-4.6,12.5-4.6l13.1,8.6c0,0,16.1-10.6,11.6-15.2s-1.8-13.4,2.6-16.6
			s13,0.7,13,0.7c2.4-2.9,5-5.5,7.8-8c14-11.9,33.6-55,40-79s20.7-15.1,24-2.8s20.9,0.7,28.2,12.3c7.3,11.6-3.8,24.3,17.9,2.8
			s52.2,8,52.2,8l0,0c0,0,29.5,30.4,8,52.1s-8.8,10.6,2.8,17.9s0,24.9,12.3,28.2S1143.3,466.7,1119.4,473.1z"/>
		
			<linearGradient id="Осветление_1_" gradientUnits="userSpaceOnUse" x1="489.2771" y1="-478.171" x2="1154.3002" y2="-478.171" gradientTransform="matrix(1 0 0 1 0 1106)">
			<stop  offset="0" style="stop-color:#FFFFFF;stop-opacity:0"/>
			<stop  offset="1" style="stop-color:#FFFFFF"/>
		</linearGradient>
		<path id="Осветление" class="st8" d="M616.3,880.4c-12.6-12.6-22.2-22.2-23.5-23.5c-3.5-3.5-68.4-67.8-86.4-87.8
			c-1.9-2-3.4-3.8-4.8-5.3c-5.7-6.3-8.9-9.7-10.9-15.1c-4.6-12.7,3.2-21.7,5.8-24.7c1.4-1.6,2.7-3.3,3.8-5.2
			c9.5-16.5,20.6-22,29.5-23.5c0.4-1.6,0.8-3.2,1.3-5c5.8-20,28.5-22.7,50.5-25.4c6.2-0.8,12.6-1.5,18.4-2.6
			c6.1-1.1,11.8-1.8,17.2-2.5c14.9-1.8,22.2-3.1,24.9-7.3c13.9-22.1,30.2-22.1,41-22.1c2.4,0,4.8,0,7.2-0.2
			c8.1-1.4,35.9-18.5,46.4-24.9c5.2-3.2,9.7-6,13.2-7.9c3.1-1.8,19-13.9,91.6-91.3c5.4-5.8,8-9.8,9.2-12.1
			c-7.9-7.4-15.3-15.2-22.2-23.4c-5.6-6.4-9.3-11.7-11.6-16.6c-5.8-12.4-1.9-21.4,1-25.5c6.9-10.1,20-13,35.2-7.6
			c1,0.3,2,0.8,2.9,1.3c3.5,1.8,7.2,3.2,11,4.1c10.4-6.7,18.7-7.4,24.5-6.3c1.7-7.8,6.1-14.7,12.4-19.6c5.3-3.8,11.7-5.6,18.2-5.1
			c0.5-0.4,0.9-0.8,1.4-1.2c9-7.7,27.2-45,33.6-68.9c7.2-27,24.3-29.9,31.3-29.9c11.6,0,22.3,7.4,28.2,18.8
			c6.1,0.2,15.6,1.4,23.4,8.4c14-9.3,31.4-10.1,49.2-2c8.6,4,16.6,9.4,23.6,15.9c0.1,0.1,0.3,0.3,0.4,0.4c6.5,7,11.9,14.9,15.9,23.6
			c8.1,17.8,7.3,35.2-2,49.2c7,7.8,8.2,17.3,8.4,23.4c11.4,5.9,18.8,16.6,18.8,28.1c0,7-2.9,24.1-29.9,31.3
			c-23.9,6.4-61.2,24.6-68.9,33.6c-0.4,0.5-0.8,0.9-1.2,1.4c0.5,6.5-1.3,12.9-5.1,18.2c-4.8,6.3-11.8,10.7-19.6,12.4
			c1.1,5.8,0.4,14.1-6.3,24.5c0.9,3.9,2.3,7.6,4.1,11.1c0.5,0.9,0.9,1.8,1.2,2.8c5.3,15.2,2.5,28.3-7.6,35.2
			c-4.2,2.9-13.1,6.8-25.6,1c-4.9-2.3-10.2-6-16.7-11.6c-8.2-6.9-16-14.3-23.4-22.2c-2.4,1.2-6.4,3.7-12.2,9.2
			c-77.4,72.6-89.4,88.5-91.3,91.6c-2,3.5-4.7,8-7.9,13.2c-6.4,10.5-23.5,38.3-24.9,46.4c-0.2,2.4-0.3,4.8-0.2,7.2
			c0,10.8,0,27.1-22.1,41c-4.2,2.7-5.5,10-7.3,24.9c-0.7,5.5-1.3,11.2-2.5,17.3c-1.1,5.8-1.8,12.2-2.6,18.4
			c-2.7,22-5.5,44.8-25.4,50.5c-1.7,0.5-3.4,0.9-5,1.3c-1.5,9-6.9,20-23.5,29.5c-1.9,1.1-3.6,2.3-5.2,3.8
			c-11.9,10.4-21.5,6.9-24.6,5.8c-5.4-2-8.8-5.1-15.1-10.8c-1.5-1.4-3.2-3-5.3-4.8C668,931.9,637.8,901.9,616.3,880.4z"/>
		<g>
			
				<linearGradient id="Диск_1_" gradientUnits="userSpaceOnUse" x1="526.8386" y1="160.6929" x2="526.8386" y2="-265.4838" gradientTransform="matrix(0.94 0.34 -0.34 0.94 308.36 490.16)">
				<stop  offset="0" style="stop-color:#000000"/>
				<stop  offset="0.8" style="stop-color:#8967CB"/>
				<stop  offset="1" style="stop-color:#AD82FF"/>
			</linearGradient>
			<path id="Диск" class="st9" d="M894.1,416.4c-258.3-92.2-499.7-77.1-539.2,33.7s137.8,275.3,396,367.5s499.7,77.1,539.2-33.7
				S1152.3,508.6,894.1,416.4z M757,800.7c-190.6-68-315.8-205.4-279.6-306.9s220.1-128.5,410.7-60.5s315.8,205.4,279.6,306.9
				S947.6,868.7,757,800.7z"/>
		</g>
		<path id="Блик" class="st10" d="M858.5,532.5c0,0-1.9,3.5-23.5,26.5 M864,524l9-12"/>
	</g>
	<g id="Ладья">
		
			<linearGradient id="Обводка_3_1_" gradientUnits="userSpaceOnUse" x1="1450.7474" y1="-1175.2034" x2="1282.9536" y2="-1315.9882" gradientTransform="matrix(0.76 -0.65 0.65 0.76 177.69 2029.0199)">
			<stop  offset="0" style="stop-color:#D9E021"/>
			<stop  offset="0.7" style="stop-color:#649C67"/>
			<stop  offset="1" style="stop-color:#2F7E87"/>
		</linearGradient>
		<path id="Обводка_3" class="st11" d="M480.5,280.1l-1,0.8c-9.9,8.4-23.9,19.2-34.4,23c-16.5,6-24.3,5-39.6-5.2
			c-13-8.6-19.4-19.2-19.3-32.4c-2.6-3.2-4.8-6.8-6.4-10.6c-3.7-7.5-7.7-15.2-10.8-21c-7.9-1-15.4-5.3-22.6-12.9c-0.9-1-1.7-2-2.6-3
			c-5.7-0.6-11-3.1-15-7.2c-0.3-0.3-8.3-8.4-15.7-15.3c-3.2-2.9-9.7-9-13.4-17.4c-5.2-12.2-2.6-25.3,7.1-35.9
			c2.9-3.2,6.4-5.9,10.3-7.9c1.3-2.1,2.9-4,4.7-5.7l0.5-0.4l17.4-15l17.5-14.7l0.4-0.3c1.9-1.5,4.1-2.8,6.3-3.7
			c1.7-2.3,3.6-4.3,5.7-6.1c1.2-1,2.4-1.9,3.7-2.8c12-7.9,25.3-8.3,36.5-1.2c7.8,4.9,12.7,12.4,15.1,16c5.5,8.4,12.3,17.6,12.6,18
			c3.4,4.6,5,10.3,4.7,16c0.9,1,1.8,2,2.6,3c6.4,8.3,9.5,16.4,9.1,24.4c5.2,4,12.2,9.2,19.1,14c3.5,2.2,6.7,4.9,9.4,8
			c13,2.1,22.5,10,28.9,24.2c7.5,16.8,7.3,24.6-1.2,39.9c-5.5,9.8-18.3,21.8-28.2,30.2L480.5,280.1z"/>
		
			<linearGradient id="Обводка_2_1_" gradientUnits="userSpaceOnUse" x1="1444.3459" y1="-1180.5067" x2="1289.0582" y2="-1310.7992" gradientTransform="matrix(0.76 -0.65 0.65 0.76 177.69 2029.0199)">
			<stop  offset="0" style="stop-color:#D9E021"/>
			<stop  offset="0.7" style="stop-color:#649C67"/>
			<stop  offset="1" style="stop-color:#2F7E87"/>
		</linearGradient>
		<path id="Обводка_2" class="st12" d="M475.3,273.9l-1,0.9c-7.7,6.5-22,18-31.9,21.6c-14.1,5.1-19.2,4.4-32.4-4.3
			c-11.7-7.7-16.6-16.6-15.5-28.5c-3.1-3.2-5.6-7-7.3-11.1c-4.8-9.8-10-19.7-13.3-25.6c-7.2,0.6-14.5-3-21.5-10.5
			c-1.6-1.7-2.9-3.5-4.1-5.5H346c-4.3,0-8.4-1.8-11.5-4.9c-0.1-0.1-8.3-8.5-16-15.6c-3-2.7-8.5-7.8-11.4-14.7
			c-4-9.3-2-18.9,5.6-27.2c2.8-3.1,6.3-5.5,10.1-7.1c1-2.2,2.5-4.2,4.3-5.9l0.3-0.3l17.3-14.9l17.5-14.7l0.3-0.2
			c1.9-1.5,4.1-2.6,6.5-3.3c1.5-2.5,3.5-4.8,5.7-6.7c0.9-0.8,1.9-1.5,2.9-2.2c9.4-6.1,19.2-6.6,27.7-1.2c6.3,4,10.5,10.2,12.7,13.6
			c5.7,8.7,12.8,18.2,12.8,18.3c2.6,3.5,3.6,7.8,3,12.1l-0.3,2.1c1.7,1.5,3.3,3.1,4.7,4.9c6.3,8.2,8.6,15.9,6.9,22.9
			c5.3,4.2,14.3,10.9,23.1,17.2c3.8,2.4,7.1,5.4,9.8,9c11.9,0.9,19.9,7.1,25.7,19.9c6.5,14.4,6.3,19.6-0.9,32.7
			c-5.1,9.2-18.7,21.5-26.3,28L475.3,273.9z"/>
		
			<linearGradient id="Обводка_1_1_" gradientUnits="userSpaceOnUse" x1="1438.2645" y1="-1185.729" x2="1295.4294" y2="-1305.5909" gradientTransform="matrix(0.76 -0.65 0.65 0.76 177.69 2029.0199)">
			<stop  offset="0" style="stop-color:#D9E021"/>
			<stop  offset="0.7" style="stop-color:#649C67"/>
			<stop  offset="1" style="stop-color:#2F7E87"/>
		</linearGradient>
		<path id="Обводка_1" class="st13" d="M471.3,266.6l-1,0.9l-0.2,0.1l-0.2,0.1c-3.3,2.9-20.3,17.3-30.3,20.9
			c-11.6,4.2-14.1,3.8-25.2-3.5c-11.4-7.5-12.9-14.6-11.7-22.9c0.1-0.8,0.2-1.6,0.2-2.4c-4.5-2.9-7.3-8.4-8.4-11
			c-5.6-11.4-12.6-24.7-15.8-29.9c-0.8-0.2-1.5-0.5-2.3-0.8l-0.3-0.1c-8.4,2.7-15.4-4.8-17.9-7.4c-2.1-2.4-3.9-5.1-5.1-8l-7-0.1
			c-2.2,0-4.2-0.9-5.7-2.4c-0.1-0.1-8.5-8.6-16.3-15.9c-5.4-5-18-16.6-5.3-30.4c2.8-3.1,6.4-5.2,10.5-6.1c0.5-2.4,1.6-4.6,3.4-6.3
			l0.1-0.1l17.2-14.8l0.1-0.1l17.4-14.6l0.1-0.1c2-1.5,4.3-2.3,6.8-2.3c1.5-3.8,4.2-7.1,7.7-9.4c15.7-10.3,25.2,4,29.2,10.1
			c5.9,8.9,13,18.5,13.1,18.6c1.3,1.7,1.8,3.9,1.5,6l-1.1,6.9c2.7,1.7,5.1,3.9,7.1,6.3c2.2,2.8,8.5,10.9,4.4,18.8
			c0,0.1,0,0.2,0.1,0.4c0.2,0.8,0.3,1.6,0.4,2.4c4.6,4,16.6,13,27,20.4c2.4,1.5,7.4,5.1,9.5,10.1c0.8,0.1,1.6,0.2,2.4,0.2
			c8.4,0.1,15.1,2.8,20.7,15.2c5.4,12.1,5.4,14.7-0.6,25.4C491,249.4,476.2,262.5,471.3,266.6z"/>
		
			<linearGradient id="Основа_1_" gradientUnits="userSpaceOnUse" x1="1432.0116" y1="-1190.9186" x2="1301.6527" y2="-1300.3016" gradientTransform="matrix(0.76 -0.65 0.65 0.76 177.69 2029.0199)">
			<stop  offset="0" style="stop-color:#D9E021"/>
			<stop  offset="0.7" style="stop-color:#649C67"/>
			<stop  offset="1" style="stop-color:#2F7E87"/>
		</linearGradient>
		<path id="Основа" class="st14" d="M464.6,261.6c0,0-18.7,16.1-27.8,19.4s-9.1,3.3-18-2.6s-8.9-9.9-8.2-14.9
			s0.1-8.6-3.1-10.2s-5.8-7.7-5.8-7.7s-17.3-35.2-19.1-34.3s-5.6-2.6-8.4-1.2c-3.1,1.5-6.5-0.9-10.2-4.9s-5.4-10.5-5.4-10.5
			l-12.6-0.1c0,0-8.5-8.7-16.6-16.1s-11-12.3-4.8-19c2.8-2.9,6.8-4.4,10.8-4l10.8,10.5l-5.8-7.7c-5.8-7.7-2.5-10.7-2.5-10.7
			l17.2-14.9l0,0l17.4-14.6c0,0,3.5-2.8,10.1,4.1l6.7,6.9l-8.6-12.3c0.2-4,2.3-7.7,5.6-10c7.6-5,11.9-1.4,18,7.8s13.3,19,13.3,19
			l-1.9,12.4c0,0,6.2,2.7,9.5,7s5.2,8,3.2,10.8c-1.8,2.6,1,6.8-0.1,8.5s30.8,24.4,30.8,24.4s5.6,3.5,6.7,6.9s4.5,4.6,9.6,4.7
			s9.1,0.7,13.4,10.4s4.4,9.7-0.3,18.2s-23.6,24.3-23.6,24.3"/>
	</g>
	<g id="Фоновые_объекты">
		<g id="Комента">
			<path class="st15" d="M679.1,93.6c-3.7,3.7-9.7,3.7-13.4,0c-3.7-3.7-3.7-9.7,0-13.4l0,0c3.7-3.7,46.7-33.2,46.7-33.2
				S682.8,89.9,679.1,93.6z"/>
		</g>
		<g id="Комента-2">
			<path class="st15" d="M1270.2,34c-2.7,2.7-7,2.7-9.7,0c-2.7-2.7-2.7-7,0-9.7c2.7-2.7,33.8-24,33.8-24S1272.8,31.3,1270.2,34z"/>
		</g>
		<g id="Комента-3">
			<path class="st15" d="M1564.9,393.2c-3,3-7.8,3-10.7,0s-3-7.8,0-10.7c3-3,37.2-26.5,37.2-26.5S1567.9,390.2,1564.9,393.2z"/>
		</g>
		<g id="Комента-4">
			<path class="st15" d="M1505.2,137.1c-3.3,3.2-8.6,3-11.7-0.3c-3-3.2-3-8.2,0-11.4c3.2-3.2,40.7-29,40.7-29
				S1508.5,133.8,1505.2,137.1z"/>
		</g>
		<g id="Пешка">
			
				<linearGradient id="Обводка_3-2_1_" gradientUnits="userSpaceOnUse" x1="295.6401" y1="-195.2095" x2="264.7639" y2="-280.0291" gradientTransform="matrix(0.8843 0.467 -0.467 0.8843 316.104 329.9881)">
				<stop  offset="0" style="stop-color:#BF0055"/>
				<stop  offset="1" style="stop-color:#FBAE17"/>
			</linearGradient>
			<path id="Обводка_3-2" class="st16" d="M647.3,285.4c-7.9-4.2-14.1-12.9-7.7-24.9c0.6-1.2,1.4-2.3,2.2-3.3
				c0.4-1.4,1-2.8,1.7-4.1c3-5.3,7.7-9.3,13.3-11.6c-1-3.6-1.2-7.4-0.5-11.1c0.4-2.3,1.4-4.5,2.8-6.4c0.4-2.1,1.2-4.2,2.2-6.1
				c3.2-6.2,9.3-10.5,16.3-11.4c13.3-1.4,26.1,5.4,32.5,17.1c3.2,6.3,3.1,13.7-0.2,19.9c-1,1.9-2.3,3.7-3.8,5.3
				c-0.7,2.2-2,4.3-3.7,5.9c-2.7,2.6-5.9,4.6-9.5,5.8c1.3,5.9,0.6,12.1-2.1,17.5c-0.7,1.3-1.5,2.5-2.4,3.7c-0.3,1.3-0.8,2.5-1.4,3.7
				c-6.4,12-17.1,11.9-25,7.7L647.3,285.4z"/>
			
				<linearGradient id="Обводка_2-2_1_" gradientUnits="userSpaceOnUse" x1="293.9214" y1="-199.8443" x2="266.4081" y2="-275.4331" gradientTransform="matrix(0.8843 0.467 -0.467 0.8843 316.104 329.9881)">
				<stop  offset="0" style="stop-color:#BF0055"/>
				<stop  offset="1" style="stop-color:#FBAE17"/>
			</linearGradient>
			<path id="Обводка_2-2" class="st17" d="M649.6,281c-10.7-5.7-7.5-14.6-5.6-18.2c0.6-1.2,1.4-2.2,2.3-3.1
				c0.3-1.5,0.8-2.9,1.5-4.2c0.6-1.2,4.3-7.5,13.4-10.3c0.6-0.4,1.2-0.9,1.7-1.5c-1.9-3.8-2.6-8.1-1.9-12.3c0.3-1.9,1.3-3.7,2.6-5.1
				c0.3-2.1,1-4.1,2-6c5.6-10.6,18.5-10.9,28.4-5.7s16.9,16.1,11.3,26.7c-1,1.9-2.3,3.6-3.9,5c-0.4,1.9-1.4,3.6-2.7,5
				c-3,3-7,4.9-11.2,5.4c-0.2,0.7-0.3,1.5-0.3,2.2c2.8,9-0.3,15.6-0.9,16.9c-0.7,1.3-1.6,2.6-2.6,3.7c-0.2,1.3-0.6,2.5-1.2,3.7
				c-1.9,3.6-7.4,11.3-18.2,5.6L649.6,281z"/>
			
				<linearGradient id="Обводка_1-2_1_" gradientUnits="userSpaceOnUse" x1="292.2574" y1="-204.4783" x2="268.1474" y2="-270.7184" gradientTransform="matrix(0.8843 0.467 -0.467 0.8843 316.104 329.9881)">
				<stop  offset="0" style="stop-color:#BF0055"/>
				<stop  offset="1" style="stop-color:#FBAE17"/>
			</linearGradient>
			<path id="Обводка_1-2" class="st18" d="M651.9,276.6c-3.5-1.8-7-4.8-3.5-11.4c0.6-1.1,1.5-2.1,2.6-2.8
				c0.1-1.6,0.5-3.2,1.3-4.6c0.3-0.6,3.1-5.6,10.5-7.9c2.5-0.8,5.2-4.4,6.3-6.3c-4.3-4.4-3.2-10.6-3.1-11.4c0.3-1.5,1.2-2.8,2.6-3.5
				c0-2.2,0.5-4.3,1.5-6.2c4.3-8.1,14.2-7.5,21.7-3.6s13.5,11.8,9.2,19.9c-1,1.9-2.5,3.6-4.3,4.8c0.2,1.5-0.4,3-1.4,4.1
				c-0.5,0.5-5.1,4.9-11.2,3.9c-1,2-2.4,6.2-1.6,8.8c2.3,7.4-0.3,12.5-0.6,13.1c-0.7,1.4-1.7,2.7-3,3.6c0.1,1.3-0.2,2.6-0.8,3.7
				c-3.5,6.6-7.9,5.4-11.4,3.5L651.9,276.6z"/>
			
				<linearGradient id="Пешка-2_1_" gradientUnits="userSpaceOnUse" x1="290.5479" y1="-209.1728" x2="269.868" y2="-266.0028" gradientTransform="matrix(0.8843 0.467 -0.467 0.8843 316.104 329.9881)">
				<stop  offset="0" style="stop-color:#BF0055"/>
				<stop  offset="1" style="stop-color:#FBAE17"/>
			</linearGradient>
			<path id="Пешка-2" class="st19" d="M661.6,276.1l-7.3-3.9c-3-1.6-2.7-2.2-1.4-4.7s6.8-1.1,4.4-2.4s-0.5-5-0.5-5
				s1.9-3.7,7.5-5.4s9.5-9.1,9.5-9.1s2.2-2.7-0.5-5c-3.2-2.6-2.3-7.5-2.3-7.5l7.7,4.3c0,0-7.6-5.8-4.1-12.5
				c3.9-7.3,14.9-1.5,14.9-1.5s11,5.8,7.1,13.2c-3.6,6.7-12.7,3.7-12.7,3.7l7.8,3.9c0,0-3.5,3.5-7.5,2.3c-3.4-1-4.4,2.4-4.4,2.4
				s-3.9,7.3-2.1,13s-0.2,9.3-0.2,9.3s-1.9,3.7-4.4,2.4s1.8,2.5,0.5,5s-1.6,3.1-4.7,1.4L661.6,276.1z"/>
		</g>
		<g id="Пешка-3">
			
				<linearGradient id="Обводка_3-3_1_" gradientUnits="userSpaceOnUse" x1="2179.2144" y1="-558.0877" x2="2148.3206" y2="-642.9555" gradientTransform="matrix(0.4753 -0.8798 0.8798 0.4753 -132.5025 2950.5208)">
				<stop  offset="0" style="stop-color:#BF0055"/>
				<stop  offset="1" style="stop-color:#FBAE17"/>
			</linearGradient>
			<path id="Обводка_3-3" class="st20" d="M401.9,789.3c-4.2,7.8-13,13.9-25,7.5c-1.2-0.6-2.3-1.4-3.2-2.3
				c-1.4-0.4-2.8-1-4.1-1.7c-5.2-3-9.3-7.8-11.5-13.4c-3.6,1-7.4,1.1-11.1,0.4c-2.3-0.5-4.5-1.4-6.4-2.9c-2.1-0.5-4.2-1.2-6.1-2.3
				c-6.2-3.3-10.4-9.4-11.2-16.4c-1.3-13.3,5.6-26.1,17.5-32.3c6.3-3.1,13.7-3,19.9,0.4c1.9,1,3.7,2.3,5.3,3.9
				c2.2,0.8,4.3,2,5.9,3.7c2.6,2.7,4.5,6,5.7,9.5c5.9-1.2,12.1-0.4,17.5,2.3c1.3,0.7,2.5,1.5,3.6,2.5c1.3,0.4,2.5,0.8,3.7,1.5
				c12,6.5,11.7,17.2,7.5,25L401.9,789.3z"/>
			
				<linearGradient id="Обводка_2-3_1_" gradientUnits="userSpaceOnUse" x1="2177.4656" y1="-562.7834" x2="2149.9353" y2="-638.4188" gradientTransform="matrix(0.4753 -0.8798 0.8798 0.4753 -132.5025 2950.5208)">
				<stop  offset="0" style="stop-color:#BF0055"/>
				<stop  offset="1" style="stop-color:#FBAE17"/>
			</linearGradient>
			<path id="Обводка_2-3" class="st21" d="M397.5,787c-5.8,10.7-14.7,7.4-18.2,5.4c-1.2-0.6-2.2-1.5-3.1-2.4
				c-1.5-0.3-2.9-0.9-4.2-1.6c-1.2-0.7-7.4-4.4-10.2-13.5c-0.4-0.6-0.9-1.2-1.5-1.7c-3.8,1.9-8.1,2.6-12.4,1.8
				c-1.9-0.4-3.7-1.3-5.1-2.7c-2.1-0.3-4.1-1-6-2c-10.6-5.7-10.7-18.6-5.4-28.5s16.2-16.8,26.8-11c1.9,1,3.6,2.3,5,3.9
				c1.9,0.4,3.6,1.4,5,2.8c3,3.1,4.8,7,5.3,11.3c0.7,0.2,1.5,0.3,2.2,0.3c9.1-2.7,15.6,0.4,16.8,1.1c1.3,0.7,2.6,1.6,3.6,2.7
				c1.3,0.2,2.6,0.6,3.7,1.3c3.6,1.9,11.2,7.6,5.4,18.2L397.5,787z"/>
			
				<linearGradient id="Обводка_1-3_1_" gradientUnits="userSpaceOnUse" x1="2175.7454" y1="-567.437" x2="2151.6379" y2="-633.6796" gradientTransform="matrix(0.4753 -0.8798 0.8798 0.4753 -132.5025 2950.5208)">
				<stop  offset="0" style="stop-color:#BF0055"/>
				<stop  offset="1" style="stop-color:#FBAE17"/>
			</linearGradient>
			<path id="Обводка_1-3" class="st22" d="M393.1,784.6c-1.9,3.5-4.9,7-11.5,3.4c-1.1-0.6-2.1-1.5-2.8-2.6
				c-1.6-0.1-3.1-0.6-4.5-1.3c-0.6-0.3-5.5-3.2-7.8-10.6c-0.8-2.5-4.3-5.3-6.2-6.4c-4.4,4.2-10.7,3.1-11.4,3
				c-1.5-0.3-2.8-1.2-3.5-2.6c-2.2,0-4.3-0.5-6.2-1.6c-8-4.3-7.4-14.3-3.4-21.7s12-13.4,20-9c1.9,1,3.5,2.5,4.7,4.3
				c1.5-0.2,3,0.4,4.1,1.5c0.5,0.5,4.9,5.2,3.8,11.2c2,1,6.2,2.4,8.8,1.7c7.4-2.2,12.5,0.4,13.1,0.7c1.4,0.8,2.6,1.8,3.6,3.1
				c1.3-0.1,2.6,0.2,3.7,0.9c6.6,3.6,5.3,8,3.4,11.5L393.1,784.6z"/>
			
				<linearGradient id="Пешка-4_1_" gradientUnits="userSpaceOnUse" x1="2174.0137" y1="-572.1547" x2="2153.3145" y2="-629.0103" gradientTransform="matrix(0.4753 -0.8798 0.8798 0.4753 -132.5025 2950.5208)">
				<stop  offset="0" style="stop-color:#BF0055"/>
				<stop  offset="1" style="stop-color:#FBAE17"/>
			</linearGradient>
			<path id="Пешка-4" class="st23" d="M392.7,774.9l-3.9,7.3c-1.6,3-2.3,2.7-4.7,1.4s-1-6.8-2.3-4.4s-5,0.5-5,0.5
				s-3.6-2-5.3-7.6s-9-9.6-9-9.6c-1.4-1.3-3.6-1.1-4.9,0.3c0,0.1-0.1,0.1-0.1,0.2c-2.6,3.2-7.5,2.2-7.5,2.2l4.4-7.6
				c0,0-5.9,7.6-12.6,3.9c-7.3-4-1.4-14.9-1.4-14.9s5.9-11,13.2-7c6.7,3.6,3.6,12.7,3.6,12.7l4-7.8c0,0,3.5,3.5,2.2,7.5
				c-0.6,1.8,0.4,3.8,2.2,4.4h0.1c0,0,7.3,4,12.9,2.3s9.3,0.3,9.3,0.3s3.6,2,2.3,4.4s2.5-1.8,5-0.5s3,1.7,1.4,4.7L392.7,774.9z"/>
		</g>
		<g id="Пешка-5">
			
				<linearGradient id="Обводка_3-4_1_" gradientUnits="userSpaceOnUse" x1="1758.886" y1="-1074.9454" x2="1733.026" y2="-1146.0155" gradientTransform="matrix(0.9593 -0.2825 0.2825 0.9593 -50.8312 2139.718)">
				<stop  offset="0" style="stop-color:#BF0055"/>
				<stop  offset="1" style="stop-color:#FBAE17"/>
			</linearGradient>
			<path id="Обводка_3-4" class="st24" d="M1314,618c-7.2,2.1-16,0.5-19.2-10.5c-0.3-1.1-0.5-2.2-0.6-3.3
				c-0.6-1.1-1.1-2.2-1.4-3.4c-1.3-4.9-0.8-10.1,1.2-14.7c-2.7-1.6-5-3.7-6.8-6.3c-1.1-1.6-1.8-3.5-2-5.5c-1-1.6-1.7-3.2-2.2-5
				c-1.7-5.6-0.5-11.7,3.1-16.3c7.1-8.6,18.8-12.1,29.5-8.7c5.6,1.9,9.9,6.4,11.5,12c0.5,1.8,0.8,3.6,0.8,5.4
				c0.9,1.8,1.3,3.7,1.3,5.7c-0.1,3.1-0.9,6.2-2.3,9c4.2,2.8,7.4,6.9,9,11.7c0.3,1.2,0.6,2.4,0.7,3.6c0.5,0.9,1,2,1.3,3
				c3.2,10.9-3.3,17.1-10.4,19.2L1314,618z"/>
			
				<linearGradient id="Обводка_2-4_1_" gradientUnits="userSpaceOnUse" x1="1757.4028" y1="-1078.818" x2="1734.38" y2="-1142.0558" gradientTransform="matrix(0.9593 -0.2825 0.2825 0.9593 -50.8312 2139.718)">
				<stop  offset="0" style="stop-color:#BF0055"/>
				<stop  offset="1" style="stop-color:#FBAE17"/>
			</linearGradient>
			<path id="Обводка_2-4" class="st25" d="M1312.8,614c-9.8,2.9-13-4.4-14-7.6c-0.3-1-0.4-2.1-0.4-3.2
				c-0.7-1.1-1.2-2.2-1.5-3.4c-0.3-1.1-1.8-7,2-14c0.1-0.6,0.2-1.2,0.1-1.8c-3.4-1.1-6.3-3.3-8.3-6.3c-0.9-1.4-1.4-2.9-1.4-4.6
				c-1.1-1.4-1.8-3-2.3-4.7c-2.8-9.6,4.7-17.4,13.7-20s19.5-0.3,22.3,9.4c0.5,1.7,0.7,3.5,0.6,5.2c0.9,1.4,1.3,3,1.3,4.6
				c-0.1,3.6-1.3,7-3.6,9.8c0.3,0.6,0.7,1.1,1.2,1.5c4.4,2.2,7.7,6,9.3,10.6c0.4,1.2,0.5,2.5,0.6,3.7c0.6,0.9,1.1,1.9,1.4,2.9
				c1,3.2,2.1,11.1-7.6,14L1312.8,614z"/>
			
				<linearGradient id="Обводка_1-4_1_" gradientUnits="userSpaceOnUse" x1="1756.0803" y1="-1082.7607" x2="1735.8914" y2="-1138.2329" gradientTransform="matrix(0.9593 -0.2825 0.2825 0.9593 -50.8312 2139.718)">
				<stop  offset="0" style="stop-color:#BF0055"/>
				<stop  offset="1" style="stop-color:#FBAE17"/>
			</linearGradient>
			<path id="Обводка_1-4" class="st26" d="M1311.7,610c-3.2,0.9-7,1.2-8.8-4.8c-0.3-1-0.3-2.1-0.1-3.2
				c-0.9-1-1.5-2.2-1.9-3.5c-0.2-0.5-1.4-5.2,1.7-10.8c1.1-2,0.6-5.7,0.1-7.5c-5.1-0.1-8.2-4.5-8.5-5c-0.7-1.1-0.9-2.4-0.5-3.6
				c-1.3-1.3-2.3-2.9-2.8-4.7c-2.2-7.3,4.1-12.8,10.9-14.8s15-0.8,17.2,6.5c0.5,1.7,0.6,3.6,0.2,5.3c1,0.8,1.5,2,1.5,3.3
				c0,0.6-0.2,5.9-4.4,8.8c0.6,1.8,2.2,5.1,4.2,6.2c5.7,3.1,7.2,7.7,7.3,8.2c0.4,1.3,0.5,2.7,0.3,4c0.8,0.7,1.4,1.7,1.7,2.7
				c1.8,6-1.6,7.8-4.8,8.8L1311.7,610z"/>
			
				<linearGradient id="Пешка-6_1_" gradientUnits="userSpaceOnUse" x1="1754.6101" y1="-1086.6608" x2="1737.2848" y2="-1134.2527" gradientTransform="matrix(0.9593 -0.2825 0.2825 0.9593 -50.8312 2139.718)">
				<stop  offset="0" style="stop-color:#BF0055"/>
				<stop  offset="1" style="stop-color:#FBAE17"/>
			</linearGradient>
			<path id="Пешка-6" class="st27" d="M1317.2,604l-6.7,2c-2.8,0.8-2.9,0.3-3.6-2s3.5-4.6,1.2-4s-3.2-2.7-3.2-2.7
				s-1-3.3,1.4-7.7s0.4-11,0.4-11c-0.1-1.6-1.5-2.8-3.1-2.7h-0.1c-3.5,0.3-5.8-3.1-5.8-3.1l7.1-1.9c0,0-8,1-9.8-5.2
				c-2-6.7,8-9.6,8-9.6s10-3,12,3.7c1.8,6.1-5.4,9.6-5.4,9.6l7-2.2c0,0-0.1,4.1-3.1,5.8c-1.4,0.7-2,2.4-1.3,3.9c0,0,0,0.1,0.1,0.1
				c0,0,2,6.7,6.3,9s5.3,5.7,5.3,5.7s1,3.3-1.2,4s2.6,0.5,3.2,2.7s0.8,2.8-2,3.6L1317.2,604z"/>
		</g>
		<g id="Конь">
			
				<linearGradient id="Обводка_3-5_1_" gradientUnits="userSpaceOnUse" x1="986.475" y1="424.4892" x2="902.8234" y2="412.1504" gradientTransform="matrix(0.8921 0.4518 -0.4518 0.8921 679.9932 149.3572)">
				<stop  offset="0" style="stop-color:#BF0055"/>
				<stop  offset="1" style="stop-color:#FBAE17"/>
			</linearGradient>
			<path id="Обводка_3-5" class="st28" d="M1280.6,994c-11.4-5.8-14.5-15.9-8.5-27.7c1.9-4.1,5.4-7.2,9.6-8.8
				c2.2-1.9,4.9-3.1,7.8-3.2c0.2-1,0.4-1.9,0.4-2.9c0.1-5.1,2.4-9.8,6.2-13.1c4.6-4,10.4-5,14.7-5.2c-3.7-4.4-5.1-10.8-3.5-17.5
				c1.8-8.1,9.4-11.5,15.6-11.3c3.2-0.1,6.5-0.6,9.6-1.3c2.3-2.4,5.3-4.2,8.5-5.1l0.8-5.6c0.9-6.1,6.6-10.3,12.7-9.4
				c3.8,0.6,7,3,8.6,6.5l7,15.8c5.8,3.9,14,12.9,12.3,32.4c-1,10.9-8.8,23.9-23.3,38.7c-3.8,3.9-7.9,7.8-12.3,11.6
				c2,3.6,3,9.2-0.9,16.9c-3.6,7.1-8.4,10-11.7,11.2c-3.9,1.4-8.2,1.2-12-0.6L1280.6,994z"/>
			
				<linearGradient id="Обводка_2-5_1_" gradientUnits="userSpaceOnUse" x1="982.9037" y1="423.8033" x2="906.6825" y2="412.572" gradientTransform="matrix(0.8921 0.4518 -0.4518 0.8921 679.9932 149.3572)">
				<stop  offset="0" style="stop-color:#BF0055"/>
				<stop  offset="1" style="stop-color:#FBAE17"/>
			</linearGradient>
			<path id="Обводка_2-5" class="st29" d="M1282.2,990.7c-6.7-3.4-13.3-10.1-6.9-22.7c1.6-3.5,4.6-6.1,8.3-7.2
				c2.3-2.2,5.5-3.2,8.6-2.7c0.8-2.1,1.3-4.3,1.4-6.6c0.1-4,1.9-7.8,5-10.5c5-4.3,12-4.5,15.2-4.3c2.6-0.4,5.3-1,7.9-1.5h-0.1
				c-1.3-0.3-2.5-0.7-3.6-1.3c-6.1-3.1-8.7-9.8-6.9-17.7c1.4-6.1,7.2-8.7,12-8.4c4-0.1,7.9-0.7,11.7-1.8c2-2.7,5.4-4.5,9.7-5.3
				l1.2-8.1c0.5-3.3,3.1-5.8,6.4-6.3c3.3-0.4,6.5,1.3,7.8,4.4l7.5,16.9c4.8,2.9,13.2,10.7,11.6,29.5c-0.9,10-8.4,22.3-22.2,36.4
				c-5.1,5.2-10,9.6-13.8,12.8c0.1,0.7,0.2,1.3,0.2,2c2.7,3.9,2.6,8.8-0.3,14.5c-3,6-6.9,8.4-9.6,9.3c-3,1.1-6.2,0.9-9.1-0.4
				L1282.2,990.7z"/>
			
				<linearGradient id="Обводка_1-5_1_" gradientUnits="userSpaceOnUse" x1="979.2735" y1="423.3983" x2="910.3242" y2="413.2326" gradientTransform="matrix(0.8921 0.4518 -0.4518 0.8921 679.9932 149.3572)">
				<stop  offset="0" style="stop-color:#BF0055"/>
				<stop  offset="1" style="stop-color:#FBAE17"/>
			</linearGradient>
			<path id="Обводка_1-5" class="st30" d="M1283.9,987.4c-11.3-5.7-6.9-14.4-5.2-17.7c1.3-2.9,3.9-4.9,6.9-5.6h0.2
				c1.7-2.4,5-3,8.5-1.5c1.8-3.4,2.8-7.1,3.1-10.9c0.1-3,1.4-5.8,3.7-7.8c4.3-3.7,10.9-3.5,12.9-3.4c8.1-1.3,16.2-3.1,24.1-5.4
				c-1-0.2-2-0.5-2.9-1c-1.9-0.8-4-1.3-6.1-1.4c-2.2-0.2-4.5-0.5-6.7-1c-1-0.2-1.9-0.6-2.8-1c-4.5-2.3-6.4-7.3-5-13.5
				c0.9-4.1,4.9-5.8,8.4-5.5c6.2-0.3,12.9-1.5,14.3-2.6c2.2-3.5,7-4.6,10.4-4.8l1.6-10.9c0.3-2,2.2-3.5,4.2-3.2
				c1.3,0.2,2.4,1,2.9,2.2l8,18c3.8,1.9,12.4,8.3,10.8,26.5c-0.8,9.2-7.9,20.7-21.2,34.2c-6,6.1-11.9,11.2-15.5,14.3
				c0.8,1.3,1,2.9,0.7,4.4c2,2.2,3.4,5.5,0.2,11.7c-4.5,8.9-10.9,8.7-13.7,7.3L1283.9,987.4z"/>
			
				<linearGradient id="Конь-2_1_" gradientUnits="userSpaceOnUse" x1="975.533" y1="422.7462" x2="913.9876" y2="413.6754" gradientTransform="matrix(0.8921 0.4518 -0.4518 0.8921 679.9932 149.3572)">
				<stop  offset="0" style="stop-color:#BF0055"/>
				<stop  offset="1" style="stop-color:#FBAE17"/>
			</linearGradient>
			<path id="Конь-2" class="st31" d="M1371.5,936.5c1.8-20-9.9-23.4-9.9-23.4l-8.6-19.4l-2.1,14c0,0-8.4-0.5-10.6,3.2
				s-17.5,4.3-17.5,4.3s-4-0.4-4.7,2.6s-1,8.7,4.9,10s9.7,0.7,13.6,2.7s6.7,0,6.7,0s6.3-1,4,3.7s-33.4,9.8-33.4,9.8
				s-12.7-1.4-13,7.6c-0.3,5.6-2.2,11-5.4,15.6l-2.7-1.3c0,0-3.3-1.7-4.3,0.3s-4.3,0.3-6.7,5s-3.7,9,3.6,12.7l25.2,12.8l16.6,8.4
				c0,0,4.7,2.3,8.7-5.6s-2-7.7-1-9.7c0.8-1.3,0.4-3-0.8-3.8c-0.1-0.1-0.3-0.2-0.5-0.2l-1.3-0.7
				C1332.5,985.3,1369.7,956.5,1371.5,936.5z"/>
		</g>
	</g>
</g>
</svg>
